<svg version="1.1" id="Layer_1" xmlns="http://www.w3.org/2000/svg" xmlns:xlink="http://www.w3.org/1999/xlink" x="0px" y="0px"
	 width="100%" viewBox="0 0 600 600" enable-background="new 0 0 600 600" xml:space="preserve">
<path fill="#000000" opacity="1.000000" stroke="none" 
	d="
M1.000000,239.000000 
	C1.000000,160.666687 1.028809,82.833313 0.903860,5.000196 
	C0.898362,1.575877 1.576308,0.903699 5.000007,0.905537 
	C202.333267,1.011456 399.666565,1.011451 596.999817,0.905562 
	C600.423157,0.903725 601.096252,1.576016 601.094421,4.999900 
	C600.988525,202.333145 600.988525,399.666443 601.094421,596.999695 
	C601.096252,600.422791 600.424316,601.096375 597.000183,601.094543 
	C399.666962,600.988586 202.333664,600.988586 5.000414,601.094421 
	C1.577602,601.096252 0.901474,600.424927 0.904755,597.000305 
	C1.018922,477.833618 1.000000,358.666779 1.000000,239.000000 
z"/>
<path fill="#050923" opacity="1.000000" stroke="none" 
	d="
M215.608322,83.724106 
	C219.034363,83.990807 222.059006,83.990570 225.536835,83.988899 
	C232.234222,83.035202 238.516296,83.877731 244.774399,83.590027 
	C246.910248,83.491837 249.083237,83.836716 251.569000,82.885368 
	C253.154449,82.407242 254.349762,82.519897 255.973053,82.731796 
	C257.952332,83.656097 259.629547,83.549942 261.276398,83.553040 
	C279.818909,83.587906 298.361420,83.588661 316.903900,83.552124 
	C318.384857,83.549202 319.894836,83.650925 321.729614,82.808350 
	C329.654785,82.361092 337.149872,82.582275 345.101196,82.539139 
	C347.707703,83.710495 350.051910,83.526894 352.369110,83.585663 
	C364.643646,83.896942 376.901978,83.212990 389.167419,82.985443 
	C393.638153,82.902512 398.070221,84.178970 402.963989,83.130302 
	C403.909088,82.678207 404.478546,82.549385 405.477386,82.774261 
	C406.055664,82.988426 406.238953,83.001030 406.697266,83.030380 
	C408.119843,84.555779 409.849030,84.688019 411.828400,85.065689 
	C412.337158,85.262230 412.533539,85.360397 413.036560,85.582535 
	C415.094757,86.229004 416.888733,85.941345 419.338165,85.986771 
	C424.729156,84.685677 428.607452,87.819901 432.757629,88.401878 
	C440.387817,89.471878 447.196014,91.968094 453.854492,95.419785 
	C465.747131,101.584831 476.924164,108.987671 485.993103,118.771812 
	C492.399658,125.683640 498.233643,133.187775 502.603546,141.967804 
	C505.415344,147.617249 508.778992,153.151337 511.499573,158.958832 
	C512.344177,160.761856 513.471191,162.413437 512.361877,164.576752 
	C512.064941,165.155731 512.239807,166.380981 512.682922,166.872375 
	C516.963684,171.619598 516.550049,177.568039 517.681763,183.311432 
	C519.290039,191.473602 518.057800,199.593460 518.338318,207.637726 
	C518.663757,216.972214 518.200012,226.519180 518.061890,235.967560 
	C517.855896,250.054733 517.387512,264.186737 518.270020,278.221741 
	C518.749756,285.851624 516.789917,292.864655 516.011292,300.583282 
	C520.691467,298.627319 524.623840,295.114624 529.325623,292.639526 
	C537.360229,288.409973 545.225830,287.712982 553.059448,292.014740 
	C558.116150,294.791534 562.130005,299.262360 564.544861,304.494873 
	C569.159790,314.494598 568.754456,325.012146 564.021606,334.643219 
	C558.405457,346.071808 553.222107,357.858398 545.697083,368.206360 
	C542.765442,372.237793 540.197876,376.918640 535.820923,379.690887 
	C531.011169,382.737335 528.496277,387.837097 524.575195,391.701630 
	C517.365540,398.807251 509.087616,403.782745 500.439850,408.628204 
	C492.756958,412.933044 484.745941,416.240356 476.273315,418.334259 
	C470.667847,419.719574 464.890900,420.484955 459.152374,421.233795 
	C454.824280,421.798584 452.629883,423.573181 452.952820,428.295197 
	C453.484283,436.066193 452.643799,443.855194 453.794281,451.674316 
	C454.453186,456.152527 453.032684,460.895477 453.075500,465.514343 
	C453.156158,474.219543 453.817291,482.920685 453.841492,491.624573 
	C453.854523,496.309906 450.271851,498.844696 446.552673,500.869324 
	C445.426056,501.482605 444.012299,501.568329 442.355774,501.937561 
	C434.235992,500.919647 426.455688,501.707825 418.312988,501.781189 
	C417.932648,502.020844 417.511749,502.017914 417.302551,501.995026 
	C415.709167,508.809326 416.844635,515.720276 416.498108,522.588501 
	C416.406738,524.399414 416.535156,526.217834 416.231812,528.454468 
	C416.816986,545.033569 410.641357,557.396240 395.839569,564.595459 
	C375.041443,574.711121 348.139038,559.330322 347.002563,536.463745 
	C345.920349,527.372192 346.786713,518.656860 346.518524,509.962646 
	C346.457611,507.987274 346.561127,506.008820 346.271545,503.601471 
	C345.871094,502.865723 345.661865,502.561340 345.211578,502.116150 
	C344.084961,501.343964 343.062225,501.491669 342.076813,501.492859 
	C315.298035,501.525208 288.519135,501.408020 261.320770,501.788086 
	C260.901093,502.029022 260.551880,502.009766 260.379761,501.978851 
	C258.653351,504.194336 259.581421,506.714264 259.537354,509.085938 
	C259.375519,517.795715 259.559479,526.509521 259.216797,535.649841 
	C258.742462,549.724976 247.398087,563.167542 233.348938,566.757080 
	C216.754364,570.997009 197.094986,562.459595 190.984833,544.989868 
	C189.279343,540.113647 188.824646,534.993042 188.986572,529.371582 
	C187.966797,522.632324 188.724472,516.312561 188.761536,509.581421 
	C188.677979,506.120575 190.505707,501.861084 184.382599,501.986389 
	C176.289719,500.841461 168.554764,501.858551 160.441391,501.214417 
	C153.890991,501.407166 149.029953,496.577240 149.019623,489.904205 
	C148.988724,469.912231 148.886856,449.918732 149.109512,429.929169 
	C149.160217,425.377380 148.388947,422.800568 143.189499,422.472931 
	C139.114151,422.216156 135.039246,421.115845 131.081436,419.981201 
	C117.087357,415.969452 103.128883,411.571503 91.436623,402.568817 
	C76.829559,391.321899 63.833206,378.679840 54.529408,362.219391 
	C49.315014,352.994019 44.178310,343.854431 39.786610,334.192169 
	C34.867310,323.369049 37.193184,313.351959 42.492184,303.992920 
	C44.283165,300.829712 48.183556,298.266754 52.209171,296.048218 
	C58.351738,292.662964 64.311592,293.621674 69.787422,293.815369 
	C75.021698,294.000549 80.952049,296.985809 84.957977,302.319214 
	C85.090187,296.479218 84.353462,290.694061 83.322304,285.949097 
	C81.608482,278.062714 82.336121,270.759613 82.935944,263.167664 
	C83.027596,262.007690 82.994156,260.836700 82.994331,259.670807 
	C82.997635,238.512543 83.301460,217.347763 82.849113,196.199173 
	C82.666008,187.638412 83.014626,179.167145 85.995880,171.325882 
	C89.050308,163.292130 90.303978,154.559769 94.939850,147.153992 
	C98.656860,141.216064 102.883080,135.584656 106.392548,129.532623 
	C109.723648,123.788193 115.293839,120.269348 119.468689,115.353821 
	C124.139938,109.853821 130.295120,105.834274 136.668716,102.064041 
	C140.316071,99.906494 143.991104,96.889534 147.759888,95.386780 
	C159.888855,90.550499 171.812561,84.658829 185.256073,83.976295 
	C187.555313,83.859566 189.834488,83.347542 192.553314,83.022736 
	C193.611191,83.737122 194.423218,83.992882 195.671646,83.986000 
	C197.711273,83.986603 199.421295,83.987091 201.558655,83.987221 
	C206.329163,82.217453 210.772568,82.950546 215.608322,83.724106 
z"/>
<path fill="#595D66" opacity="1.000000" stroke="none" 
	d="
M346.440247,83.371063 
	C338.314819,83.082535 330.617340,83.042747 322.453796,83.062637 
	C320.843506,83.975060 319.504517,83.985214 318.171143,83.985519 
	C298.390717,83.990082 278.610260,84.036133 258.829865,83.962128 
	C258.161255,83.959625 257.508575,83.833199 256.442230,83.381989 
	C254.937851,83.100380 253.863251,83.064461 252.388199,83.082092 
	C243.628174,84.732941 235.241302,84.163689 226.445618,83.182953 
	C226.944885,81.445663 228.420822,81.997887 229.657745,81.997253 
	C287.603363,81.967552 345.549011,81.968880 403.494659,81.979713 
	C404.150146,81.979836 404.805664,82.150940 405.666748,82.609032 
	C405.451416,82.997177 405.030426,83.018524 404.297668,83.093353 
	C402.831421,83.982719 401.481842,84.075912 400.157776,83.971878 
	C383.046509,82.627403 365.936157,84.678001 348.826447,83.964531 
	C348.157410,83.936638 347.504242,83.829674 346.440247,83.371063 
z"/>
<path fill="#1C2231" opacity="1.000000" stroke="none" 
	d="
M261.379974,502.028748 
	C261.870728,500.779541 263.267426,501.002991 264.573822,501.002533 
	C290.366241,500.993530 316.158691,500.992218 341.951111,501.012451 
	C342.762299,501.013062 343.573334,501.259491 344.677490,501.683319 
	C317.266632,501.993042 289.562744,502.010742 261.379974,502.028748 
z"/>
<path fill="#030614" opacity="1.000000" stroke="none" 
	d="
M226.023346,83.181885 
	C234.377792,82.956245 242.717026,82.998947 251.522003,83.088654 
	C251.816330,83.996735 251.427246,84.884407 250.503052,84.870461 
	C242.586533,84.750999 234.641830,85.768654 226.373352,84.158401 
	C225.996078,83.808380 226.002106,83.629303 226.023346,83.181885 
z"/>
<path fill="#40445D" opacity="1.000000" stroke="none" 
	d="
M259.368256,535.841431 
	C259.381165,524.855286 258.462189,513.615173 259.827393,502.174072 
	C260.050110,513.166809 259.892548,524.385681 259.368256,535.841431 
z"/>
<path fill="#40445D" opacity="1.000000" stroke="none" 
	d="
M346.089233,503.622467 
	C347.881958,506.587646 346.831177,510.266174 346.936737,513.810730 
	C347.147919,520.903442 347.022797,528.006226 347.020660,535.577881 
	C345.435211,535.219360 346.010620,533.729980 346.009857,532.498291 
	C346.003906,523.023804 346.060791,513.549316 346.089233,503.622467 
z"/>
<path fill="#595D66" opacity="1.000000" stroke="none" 
	d="
M416.391113,528.664673 
	C416.144531,520.069275 416.259583,511.261292 416.734009,502.212708 
	C416.979828,510.798737 416.866302,519.625366 416.391113,528.664673 
z"/>
<path fill="#1C2231" opacity="1.000000" stroke="none" 
	d="
M160.298523,501.320740 
	C167.812561,501.233307 175.612747,500.489807 183.679581,501.683533 
	C176.172363,501.837952 168.359772,502.479553 160.298523,501.320740 
z"/>
<path fill="#1C2231" opacity="1.000000" stroke="none" 
	d="
M418.408325,502.014954 
	C425.708313,499.986908 433.571228,501.114929 441.695862,501.676208 
	C434.282349,501.989288 426.583191,501.999207 418.408325,502.014954 
z"/>
<path fill="#595D66" opacity="1.000000" stroke="none" 
	d="
M188.609634,509.371460 
	C188.975327,515.430176 188.990265,521.710388 188.990112,528.452026 
	C186.901871,522.541321 188.199631,516.044189 188.609634,509.371460 
z"/>
<path fill="#030614" opacity="1.000000" stroke="none" 
	d="
M413.199036,85.742493 
	C411.000610,85.295052 407.874969,87.687866 406.995270,83.438560 
	C408.931366,83.159775 411.092957,82.370178 412.822968,84.640366 
	C413.136566,85.135109 413.266693,85.309212 413.199036,85.742493 
z"/>
<path fill="#595D66" opacity="1.000000" stroke="none" 
	d="
M202.436096,83.175804 
	C206.433640,80.985527 210.998810,82.164177 215.737503,82.577316 
	C211.631012,84.103661 207.216995,83.263443 202.436096,83.175804 
z"/>
<path fill="#030614" opacity="1.000000" stroke="none" 
	d="
M202.018616,83.192780 
	C206.370438,82.954506 210.709183,82.980835 215.508728,82.969154 
	C215.977539,83.107780 215.985504,83.284416 216.001602,83.726044 
	C211.645981,83.993919 207.282211,83.996803 202.452240,83.993271 
	C201.992523,83.810364 201.999023,83.633865 202.018616,83.192780 
z"/>
<path fill="#050923" opacity="1.000000" stroke="none" 
	d="
M413.000610,86.000839 
	C413.001373,85.828377 413.001495,85.655090 413.004028,85.221413 
	C415.281708,85.500290 417.672394,84.002838 419.956360,85.670036 
	C420.010986,85.988258 420.000977,85.998802 420.001404,85.998886 
	C417.988739,86.964615 415.864227,86.321632 413.394653,86.213951 
	C412.997589,85.998566 413.000000,86.000000 413.000610,86.000839 
z"/>
<path fill="#030614" opacity="1.000000" stroke="none" 
	d="
M195.790253,83.728203 
	C194.880417,85.249710 193.884552,85.373436 193.036545,83.347092 
	C193.848892,83.174980 194.714066,83.322639 195.790253,83.728203 
z"/>
<path fill="#FEFEFE" opacity="1.000000" stroke="none" 
	d="
M202.444336,346.255371 
	C199.979111,345.834015 197.957550,345.595673 195.503418,345.416931 
	C194.873932,345.764709 194.676971,346.052795 194.322540,345.841736 
	C161.720047,339.774841 134.717682,312.168793 130.742706,280.302063 
	C128.071198,278.830933 129.023666,276.511688 129.064301,274.738251 
	C129.349457,262.293640 128.874847,249.851349 128.837830,237.411423 
	C128.804276,226.130524 129.402893,214.854828 129.029907,203.574387 
	C128.964981,201.610489 128.665680,199.574631 129.957565,197.335342 
	C133.354141,175.743622 143.066574,158.314346 160.317780,144.921509 
	C171.071182,139.715363 182.229660,138.994034 194.044342,139.463165 
	C209.958801,139.626266 225.405624,139.577225 241.332153,139.494232 
	C249.790314,139.224792 257.769745,139.385925 266.224091,139.450287 
	C268.928986,139.603806 271.159424,139.586639 273.871155,139.526840 
	C292.809845,139.126343 311.268768,139.377029 330.203430,139.433167 
	C335.416290,139.646912 340.153961,139.563507 345.358643,139.547424 
	C351.372314,139.240677 356.921692,139.449188 362.926147,139.474884 
	C364.596436,139.581635 365.811218,139.595566 367.481262,139.570190 
	C368.543610,139.522888 369.151611,139.497452 370.217346,139.507660 
	C378.632721,139.628494 386.591064,139.561432 394.994629,139.564957 
	C397.746826,139.426010 400.055115,139.475891 402.776184,139.527069 
	C420.882111,138.304733 432.720276,148.166489 443.154572,160.655884 
	C443.895142,161.542313 444.543762,162.509888 445.618896,163.657501 
	C453.303986,175.903244 456.238281,189.126083 456.397308,202.944138 
	C456.646027,224.555786 456.467194,246.172165 456.462036,267.786530 
	C456.455231,296.515503 444.398590,318.949432 421.259003,335.745056 
	C416.388306,339.280426 411.525879,342.620483 405.317566,344.486816 
	C401.588806,345.092682 398.215210,345.470795 394.415588,345.953400 
	C385.755981,347.003906 377.494141,346.343384 369.246582,346.457825 
	C361.471985,346.565704 353.693756,346.547638 345.457764,346.266724 
	C326.565277,346.029663 308.132477,345.934601 289.699585,345.912018 
	C266.111023,345.883148 242.522415,345.912659 218.473450,346.005920 
	C213.016251,348.184509 207.916138,345.726929 202.444336,346.255371 
z"/>
<path fill="#53A5FC" opacity="1.000000" stroke="none" 
	d="
M429.168182,376.694000 
	C430.035431,377.344086 430.572968,377.891907 431.177612,378.722412 
	C431.124512,379.192230 431.004364,379.379272 430.640747,379.791901 
	C428.738892,381.090210 428.310638,382.711792 428.397522,384.916687 
	C428.409943,387.376495 428.595428,389.493347 427.532990,391.838928 
	C421.715485,394.044067 418.603027,392.827026 416.869080,387.468536 
	C415.927765,384.559509 414.353485,383.595367 411.490234,383.447296 
	C402.350769,382.974670 393.231110,384.490417 384.088440,383.582275 
	C381.687622,383.343842 379.849396,384.338104 379.463470,387.033417 
	C378.870453,391.174713 376.112274,392.440796 372.354553,392.434113 
	C370.192139,392.430267 368.026764,392.552429 365.873444,392.275177 
	C364.336334,392.077271 362.838226,391.634430 362.218048,390.063507 
	C361.272308,387.667938 360.413940,385.140411 357.140320,385.687622 
	C353.503357,386.295593 349.214233,385.389343 346.851379,389.414581 
	C345.261078,392.123718 342.898621,393.260864 339.890900,393.566467 
	C335.999146,393.961945 332.405609,394.777710 330.474823,398.931396 
	C329.420776,401.198853 326.836151,401.601776 324.589050,402.288147 
	C320.363953,403.578583 319.952820,404.551300 322.484680,408.065125 
	C323.750702,409.822144 324.081726,411.268616 322.402039,413.250153 
	C318.739868,417.232147 314.829468,419.346375 309.553345,418.434418 
	C306.924408,417.980011 304.507721,419.573792 301.595947,420.232300 
	C298.072266,420.673828 295.816376,422.709656 293.518616,424.560059 
	C290.358002,427.105286 289.623657,426.985107 288.753113,423.186737 
	C288.456879,421.894135 288.426544,420.548187 287.378418,419.097839 
	C286.741364,417.434998 286.722961,416.107880 287.145508,414.384399 
	C289.848633,408.378265 288.359741,402.484802 288.318085,396.701782 
	C288.307861,395.283997 287.009430,394.538208 285.128418,394.523315 
	C283.144897,394.529907 281.553955,394.458740 279.565979,394.519196 
	C276.928223,394.262115 275.273468,394.660553 275.416321,397.496124 
	C275.603760,401.217102 274.906708,404.979736 276.055908,409.059204 
	C276.720642,419.833862 276.236969,430.218903 276.431488,440.597748 
	C276.470764,442.693604 275.946472,444.920502 277.736389,447.066620 
	C278.221588,447.502197 278.423615,447.660400 278.895966,448.079529 
	C282.361755,453.464386 287.040283,455.343384 292.590607,453.482971 
	C293.377686,453.273712 293.839569,453.247131 294.639984,453.377075 
	C296.932770,454.546478 297.439972,456.598755 298.438110,458.705322 
	C298.814056,459.344147 299.051636,459.692108 299.496643,460.272583 
	C300.510529,461.438110 301.326965,462.362885 302.686768,463.146393 
	C305.147034,464.039703 307.270203,463.862244 309.656036,462.779449 
	C310.169525,462.544647 310.377228,462.454315 310.903473,462.243591 
	C312.083160,461.834045 312.967896,461.620056 314.145386,461.190491 
	C319.065674,460.436218 320.203125,456.509583 322.009644,453.191772 
	C323.052002,451.277405 323.549713,449.159729 324.648773,446.901825 
	C326.142670,445.721527 327.617157,445.504761 329.475586,445.318787 
	C333.525513,446.418671 335.465820,450.106659 339.293213,451.649933 
	C342.667969,454.508301 346.540283,454.142883 350.160645,454.580505 
	C352.402832,454.851562 354.701691,454.650208 357.252045,455.406952 
	C359.782318,455.341248 362.732147,456.973785 363.390900,452.684326 
	C364.010773,451.329834 364.780670,450.702698 366.345337,450.768097 
	C369.711792,452.701843 371.601868,455.017212 370.094727,458.716583 
	C368.540527,462.531494 365.888123,464.623016 361.543182,463.918152 
	C356.166260,463.045868 350.910278,463.713989 345.775543,465.365906 
	C342.924103,466.283203 340.230591,466.160309 337.544922,464.846283 
	C333.525909,462.879822 329.681152,464.023010 327.033081,466.939667 
	C323.245728,471.111206 318.722382,472.080597 313.559174,472.007294 
	C310.412506,471.962585 307.263855,471.964539 304.115265,472.014954 
	C311.909149,471.941650 319.679535,472.166473 327.413025,470.401062 
	C330.876465,469.610413 334.493378,471.611847 338.218750,471.562927 
	C351.533142,471.388031 364.852966,471.377411 378.167023,471.591217 
	C380.529022,471.629120 384.273407,470.503937 383.739105,475.477295 
	C381.522369,476.697327 379.506287,476.671661 377.512299,476.673187 
	C337.875244,476.703522 298.238159,476.702576 258.601105,476.678040 
	C257.101746,476.677124 255.602890,476.633514 253.691742,476.225769 
	C250.925720,475.252991 250.913910,473.153442 250.565887,471.188843 
	C249.467133,464.986359 248.183273,463.836884 242.161911,464.038635 
	C239.643829,464.123016 237.617767,463.202179 235.756393,461.725189 
	C233.933655,460.278778 232.234604,458.698792 229.848740,458.140656 
	C228.027069,457.714508 226.900223,456.560791 227.198441,454.540192 
	C227.518723,452.369934 229.180511,452.142853 230.940918,452.127625 
	C232.253571,452.116272 233.604233,452.504059 235.209366,451.609680 
	C236.573242,451.117767 237.577759,451.099091 238.900360,451.616272 
	C241.002258,453.019012 241.904419,457.509918 245.468597,453.234558 
	C251.661713,452.964020 257.246185,449.758728 263.425446,452.095184 
	C266.170197,453.133057 268.952454,450.931091 267.759583,447.969086 
	C264.394012,439.612122 266.205139,431.219910 266.560486,422.808197 
	C266.616608,421.479492 266.631592,420.134888 266.391876,418.821198 
	C265.706818,415.066315 263.291992,413.836823 259.843872,415.575378 
	C258.079041,416.465240 256.621979,418.286621 254.537689,418.162079 
	C247.397095,417.735291 240.781677,419.359833 234.153015,422.634216 
	C232.570312,421.912781 232.684570,420.901428 233.140472,419.483521 
	C233.827103,418.259277 234.579605,417.587524 235.601288,416.666168 
	C237.423706,415.669067 238.757446,414.625641 240.335007,413.283966 
	C243.167084,412.388519 245.686630,412.456268 248.552475,413.010193 
	C249.309341,413.265869 249.811813,413.964844 249.913437,413.789825 
	C250.234940,413.236237 250.020264,414.063568 249.387726,413.310669 
	C246.957703,406.421082 248.269669,403.888306 254.890564,402.066071 
	C255.692551,401.845398 256.493622,401.546906 257.313110,401.479828 
	C261.774384,401.114807 266.344666,400.974457 266.700684,394.807495 
	C266.725555,394.376343 267.297150,394.030701 267.590729,393.632172 
	C268.738098,392.074738 271.716431,391.758728 271.385010,389.447662 
	C271.115875,387.570984 268.307556,387.784424 267.105621,386.399536 
	C262.886719,381.538544 257.301544,382.050415 251.835388,382.732910 
	C245.341782,383.543732 239.070801,382.882202 232.576645,382.108948 
	C224.707794,381.172028 216.909790,379.084076 208.880966,379.445953 
	C202.685181,379.725220 201.624771,380.595642 200.335144,386.757538 
	C200.033096,388.200684 200.022934,390.022766 198.156906,390.262787 
	C196.077209,390.530304 195.393753,388.824860 194.866486,387.179718 
	C194.765091,386.863281 194.687363,386.538330 194.624115,386.211823 
	C194.249237,384.275940 193.533386,382.702820 191.170486,382.692810 
	C188.933929,382.683350 188.553986,384.355530 188.095856,385.980896 
	C187.412888,388.404053 186.404770,390.671265 184.613510,392.969879 
	C180.095428,397.052979 180.144608,404.675079 184.673248,409.481323 
	C186.700439,416.649231 187.344055,423.638092 187.529999,430.601013 
	C187.858765,442.911316 187.691986,455.235413 187.597229,467.552917 
	C187.541306,474.821655 186.202515,476.068115 178.293625,476.357666 
	C177.546524,476.201111 177.256256,476.115601 176.571136,475.819153 
	C173.719910,472.997986 174.943634,469.659363 174.278015,466.279480 
	C173.863495,465.125763 173.662796,464.335632 173.347275,463.159241 
	C173.216690,462.228821 173.246704,461.699188 173.487396,460.807983 
	C174.897675,458.401184 175.550644,455.920624 175.216888,453.791962 
	C174.077759,446.526459 176.273895,439.266815 174.911819,432.044189 
	C174.569366,430.228363 174.602417,428.368073 175.403976,426.674286 
	C178.328339,420.494659 178.702820,414.462006 175.336929,408.208160 
	C173.608917,404.997528 175.041443,401.412567 175.690948,397.814392 
	C174.655930,398.568665 174.689346,399.811371 173.315002,400.324493 
	C172.440201,400.293274 171.767120,400.097473 171.770920,399.638672 
	C171.818314,393.923248 170.702957,388.161072 172.663696,382.246155 
	C175.680786,381.510071 174.686707,384.876312 176.475113,385.383820 
	C180.431427,381.325867 180.410034,380.977997 176.192703,377.006561 
	C175.831238,376.666229 175.984085,376.077972 176.512695,375.321136 
	C178.030319,374.277130 179.392776,374.522034 180.704254,374.522247 
	C262.224579,374.534058 343.744904,374.467529 425.749573,374.643188 
	C426.233917,374.739746 426.199646,374.644867 426.247925,374.630310 
	C426.465637,376.146667 428.024536,375.889954 429.168182,376.694000 
z"/>
<path fill="#D1E1F8" opacity="1.000000" stroke="none" 
	d="
M405.360291,344.782593 
	C405.050354,343.633911 405.549255,342.773956 406.539642,342.349884 
	C427.119751,333.537445 440.952087,318.017944 449.905304,297.966278 
	C454.013824,288.764801 454.735748,278.652344 454.882507,268.728241 
	C455.207611,246.738083 455.101349,224.738968 454.940704,202.745178 
	C454.842468,189.297882 451.548645,176.578384 444.980774,164.385834 
	C445.294098,163.656693 445.748413,163.462585 446.258698,163.503723 
	C446.937744,163.558472 447.525238,163.830048 447.925415,164.417786 
	C444.216309,159.686951 444.319458,158.105988 448.472168,156.814621 
	C449.419342,156.520065 450.395050,156.288742 451.698242,155.977371 
	C463.964111,169.285889 470.616119,184.984100 470.966431,202.850464 
	C471.423492,226.159439 471.497345,249.493088 470.988068,272.799774 
	C470.255615,306.318634 443.506958,337.465179 410.659607,343.938324 
	C409.029175,344.259644 407.392090,344.547333 405.360291,344.782593 
z"/>
<path fill="#D8E5FC" opacity="1.000000" stroke="none" 
	d="
M194.539886,140.723206 
	C182.967926,140.100677 172.190460,142.217529 161.062546,144.893097 
	C171.574600,135.944839 183.977203,130.723923 198.559906,129.931122 
	C207.745300,129.839859 216.498062,130.230194 225.648041,129.779205 
	C234.026535,129.588898 242.004486,129.402664 249.982422,129.402313 
	C296.078583,129.400375 342.174713,129.442322 388.618530,129.611084 
	C389.496826,132.044388 387.483307,132.387787 386.296814,132.421555 
	C381.322113,132.563202 379.502106,135.321732 379.146057,140.094986 
	C376.175293,140.687164 373.483337,140.340714 370.445923,140.735352 
	C369.622345,140.943085 369.158173,140.961823 368.345551,140.974945 
	C366.939514,139.901367 365.764160,139.775009 364.240723,140.749725 
	C358.297272,140.970367 352.591797,140.970688 346.415710,140.943176 
	C341.232666,139.278519 336.448395,139.889709 331.358887,140.689209 
	C312.330994,140.936676 293.609619,140.953842 274.416992,140.943115 
	C271.908295,139.463730 269.748535,139.824524 267.311157,140.699860 
	C258.985870,140.931580 250.917953,140.948074 242.375824,140.939301 
	C233.033752,139.962708 224.139481,140.659180 215.258636,140.515594 
	C208.498566,140.406296 201.734009,140.420776 194.539886,140.723206 
z"/>
<path fill="#F8FAFB" opacity="1.000000" stroke="none" 
	d="
M227.938538,501.930359 
	C235.943497,501.989441 235.964142,501.989349 235.994110,509.572632 
	C236.023056,516.893372 236.082611,524.215332 235.981781,531.534729 
	C235.888519,538.302795 232.168472,542.605530 226.175125,543.175964 
	C219.158081,543.843750 213.937256,540.257202 212.881744,533.383423 
	C211.384811,523.635071 212.678604,513.787781 212.418732,503.988098 
	C212.355453,501.601990 213.982620,501.895355 215.470337,501.897827 
	C219.463486,501.904449 223.456619,501.918823 227.938538,501.930359 
z"/>
<path fill="#FBFDFD" opacity="1.000000" stroke="none" 
	d="
M393.020630,503.233765 
	C393.066528,512.848206 393.177826,521.981201 393.059143,531.111206 
	C392.966583,538.229492 388.462036,543.107971 382.049866,543.420593 
	C375.541901,543.737915 370.084656,538.945923 369.797211,531.792480 
	C369.430969,522.678162 369.718109,513.537964 369.702087,504.408905 
	C369.699951,503.200836 369.609253,501.918365 371.309113,501.987946 
	C378.533752,502.283691 385.812988,501.052429 393.020630,503.233765 
z"/>
<path fill="#D7E5FB" opacity="1.000000" stroke="none" 
	d="
M379.395081,140.219025 
	C377.097473,133.773483 379.831360,131.195999 385.917023,131.135925 
	C386.833496,131.126862 387.745056,130.624710 388.812561,130.051712 
	C389.421417,129.669464 389.876678,129.586166 390.657959,129.640228 
	C391.772522,130.122025 392.526062,130.737549 393.748291,129.958389 
	C397.736511,129.862930 401.418304,129.903442 405.557434,129.882568 
	C407.115540,129.113953 408.247986,128.933975 409.719208,129.966858 
	C426.539673,134.286057 440.547180,142.486649 451.925873,155.586655 
	C451.874664,156.362213 451.761810,157.202652 451.552185,157.227524 
	C443.231476,158.214813 447.346191,161.900482 449.778656,165.236191 
	C450.229004,165.853760 450.991333,166.414719 450.245453,167.559494 
	C447.762909,167.754395 447.991669,164.031921 445.275146,164.049240 
	C442.187225,163.999313 442.509918,161.248596 441.244843,159.945740 
	C433.758911,152.236115 426.054474,144.857925 415.233429,141.829315 
	C411.775879,140.861649 408.356384,141.160965 404.456177,140.958160 
	C403.256195,140.256012 402.831451,139.371078 402.424713,138.463882 
	C401.504639,136.411728 399.766327,135.330063 397.672180,135.702179 
	C395.439392,136.098923 397.286011,138.279129 396.534943,139.453720 
	C396.261566,139.881348 395.967285,140.235672 395.105713,140.466232 
	C389.737518,140.435226 384.762512,140.572617 379.395081,140.219025 
z"/>
<path fill="#6FA6E9" opacity="1.000000" stroke="none" 
	d="
M425.935364,374.419189 
	C423.908569,374.827789 421.583252,374.992462 419.257904,374.992828 
	C340.164825,375.005493 261.071716,374.999268 181.978638,375.021057 
	C180.052338,375.021606 177.914261,374.407440 176.133087,376.951599 
	C175.416138,378.499664 175.188339,379.478577 174.880859,380.757904 
	C174.685394,381.234894 174.582825,381.415619 174.236084,381.790009 
	C170.136154,387.510986 173.089294,393.641022 172.724777,399.724854 
	C175.273666,402.396332 174.241699,405.385071 174.454468,408.621796 
	C174.409653,414.099976 174.405594,419.106995 174.458939,424.585419 
	C174.442062,436.744385 175.019028,448.436554 174.079544,460.574493 
	C173.948288,461.458923 173.948456,461.887146 173.948532,462.636597 
	C173.978790,463.689819 173.994125,464.422668 174.134399,465.519165 
	C174.445251,468.672211 174.409546,471.469727 174.449402,474.648407 
	C173.749603,476.043030 172.903793,476.593292 171.358017,476.173767 
	C170.974686,444.945923 170.876465,413.963013 170.891602,382.980194 
	C170.894775,376.459625 174.154678,373.838074 181.763412,373.838165 
	C247.735306,373.838928 313.707184,373.844727 379.679077,373.881531 
	C394.998352,373.890076 410.317566,374.022919 425.935364,374.419189 
z"/>
<path fill="#6FA6E9" opacity="1.000000" stroke="none" 
	d="
M429.785889,379.375916 
	C430.239807,379.008331 430.440552,379.005310 430.942993,379.003723 
	C432.894440,381.576080 432.374817,384.487701 432.375244,387.253174 
	C432.379608,416.565094 432.228394,445.877289 432.334930,475.188629 
	C432.349335,479.149506 431.141785,480.214844 427.285431,480.211304 
	C343.345123,480.134155 259.404724,480.177551 175.464340,480.143311 
	C173.970154,480.142700 172.058624,480.918671 171.056000,478.478760 
	C172.727692,476.579620 174.611374,477.850739 176.771942,477.609436 
	C178.260071,477.542572 179.348022,477.565582 180.858521,477.588593 
	C181.856644,477.582214 182.432129,477.571991 183.452667,477.521820 
	C189.728119,477.368744 195.558365,477.302032 201.859375,477.501404 
	C204.318710,477.225372 206.318176,477.327881 208.313446,477.327789 
	C278.869385,477.325073 349.425323,477.339386 419.981232,477.277527 
	C422.907928,477.274963 426.598419,478.489197 428.084686,473.692261 
	C428.473663,472.665894 428.753510,472.108398 429.225494,471.135071 
	C429.694397,460.757629 429.397827,450.817749 429.517242,440.408875 
	C429.222168,432.633881 429.316986,425.329102 429.483093,417.550934 
	C429.447937,406.711639 429.258331,396.346130 429.419861,385.523438 
	C429.726868,383.295654 428.866577,381.506378 429.785889,379.375916 
z"/>
<path fill="#030614" opacity="1.000000" stroke="none" 
	d="
M129.897018,197.055603 
	C130.232956,221.358902 130.128632,245.732803 130.091934,270.106781 
	C130.087463,273.078308 130.446365,276.050354 130.620239,279.490845 
	C127.843628,279.980133 128.052643,278.005432 127.993927,276.146942 
	C127.670006,265.895111 127.559723,255.625565 127.311485,245.384521 
	C126.949310,230.442642 127.992012,215.434860 128.011169,200.445374 
	C128.012833,199.150726 127.796921,197.704361 129.897018,197.055603 
z"/>
<path fill="#030614" opacity="1.000000" stroke="none" 
	d="
M256.116028,83.518478 
	C277.693726,83.100334 299.375031,83.064362 321.522034,83.075348 
	C321.642761,85.240578 319.998657,84.994110 318.525299,84.994637 
	C298.778351,85.001610 279.031403,85.001892 259.284454,84.991608 
	C258.152039,84.991013 256.909088,85.193588 256.116028,83.518478 
z"/>
<path fill="#030614" opacity="1.000000" stroke="none" 
	d="
M346.114380,83.505737 
	C365.026306,83.100151 384.040344,83.077995 403.520111,83.101326 
	C401.803406,86.857254 398.204620,85.108467 395.521667,84.736694 
	C389.204254,83.861298 383.054626,84.265396 376.741180,84.687508 
	C366.968292,85.340912 357.118866,84.861107 347.302246,84.805359 
	C346.938599,84.803284 346.578308,84.208000 346.114380,83.505737 
z"/>
<path fill="#CBD4E7" opacity="1.000000" stroke="none" 
	d="
M225.598740,129.539612 
	C225.171036,131.465256 223.512741,130.962936 222.105789,130.942398 
	C214.553757,130.832123 207.002762,130.651443 199.223145,130.240082 
	C207.688553,128.716644 216.428497,129.483200 225.598740,129.539612 
z"/>
<path fill="#010509" opacity="1.000000" stroke="none" 
	d="
M345.310303,346.367645 
	C361.021210,346.024139 377.044250,345.955780 393.528442,345.972656 
	C393.420807,346.356079 392.851074,346.916443 392.283478,346.914246 
	C376.729706,346.854736 361.171509,347.440857 345.310303,346.367645 
z"/>
<path fill="#010509" opacity="1.000000" stroke="none" 
	d="
M202.296524,346.348938 
	C207.029785,346.026062 212.058914,345.979767 217.550552,346.014160 
	C217.451950,348.771881 215.274155,348.046082 213.668198,347.926056 
	C209.964554,347.649261 206.282928,347.077545 202.296524,346.348938 
z"/>
<path fill="#53A5FC" opacity="1.000000" stroke="none" 
	d="
M177.211090,478.714569 
	C175.190414,479.196930 173.489426,478.740967 171.444397,478.072693 
	C171.004288,477.577850 170.939774,477.106720 170.953903,476.282166 
	C171.823257,475.699463 172.613968,475.470123 173.695389,475.118164 
	C174.153580,474.863220 174.321060,474.730927 174.802277,474.662476 
	C175.676605,475.641449 176.565414,476.297394 177.231445,477.528839 
	C177.382263,478.036682 177.398895,478.250977 177.211090,478.714569 
z"/>
<path fill="#D8E5FC" opacity="1.000000" stroke="none" 
	d="
M393.771393,129.673309 
	C393.855865,130.815659 394.412231,132.316284 392.968231,132.549103 
	C391.673981,132.757751 391.194885,131.576752 391.006287,130.095673 
	C391.818695,129.693130 392.653381,129.608658 393.771393,129.673309 
z"/>
<path fill="#030614" opacity="1.000000" stroke="none" 
	d="
M409.963684,129.956238 
	C408.935883,130.223785 407.865692,130.129227 406.405151,129.927917 
	C407.164764,127.127289 408.480530,127.286026 409.963684,129.956238 
z"/>
<path fill="#030614" opacity="1.000000" stroke="none" 
	d="
M413.258362,86.274368 
	C415.040436,85.998978 417.083313,85.999397 419.563965,85.999390 
	C417.969604,87.696037 415.739960,87.071510 413.258362,86.274368 
z"/>
<path fill="#6FA6E9" opacity="1.000000" stroke="none" 
	d="
M429.345032,376.490875 
	C428.186951,376.862305 426.664795,377.439514 426.252197,375.026520 
	C427.508911,374.682556 428.429443,375.288422 429.345032,376.490875 
z"/>
<path fill="#000000" opacity="1.000000" stroke="none" 
	d="
M516.001221,301.001221 
	C515.879944,301.427460 515.757446,301.852417 515.634949,302.277405 
	C514.923950,301.960052 515.330811,301.604218 515.798584,301.125702 
	C515.997559,300.998260 516.000000,301.000000 516.001221,301.001221 
z"/>
<path fill="#010509" opacity="1.000000" stroke="none" 
	d="
M194.198074,345.578857 
	C194.165009,345.342529 194.641022,345.254242 194.855927,345.365417 
	C194.838196,345.706635 194.885559,346.631042 194.198074,345.578857 
z"/>
<path fill="#090D22" opacity="1.000000" stroke="none" 
	d="
M266.411255,236.287628 
	C275.017426,232.031815 281.106171,235.454910 281.915863,244.687500 
	C282.206512,248.001923 282.438660,251.308578 283.804840,254.398163 
	C287.286652,262.272278 294.027496,266.179169 302.135620,265.046051 
	C308.783783,264.116943 314.748474,257.904327 316.012238,250.492813 
	C316.403412,248.198807 316.643311,245.875626 316.871216,243.557800 
	C317.411865,238.059189 320.504120,234.593018 325.344879,234.136093 
	C329.910187,233.705170 334.429871,236.834549 335.863922,241.601532 
	C337.703857,247.717529 337.020477,253.750107 335.058167,259.730743 
	C329.247650,277.439667 310.884003,288.949371 293.441162,285.777161 
	C274.398010,282.313843 261.135010,266.141449 261.841370,247.342941 
	C261.997467,243.189209 263.126038,239.506149 266.411255,236.287628 
z"/>
<path fill="#080B21" opacity="1.000000" stroke="none" 
	d="
M378.239136,221.265900 
	C393.398010,208.822708 412.936646,213.160141 419.045319,230.006332 
	C422.880066,240.581528 419.358887,251.515884 410.164642,257.583832 
	C399.682037,264.502075 387.888519,263.801605 379.437653,255.758789 
	C369.699280,246.490662 369.141235,233.259079 378.239136,221.265900 
z"/>
<path fill="#070A21" opacity="1.000000" stroke="none" 
	d="
M213.845093,216.723953 
	C223.617523,221.737366 228.720306,231.867859 227.037735,242.148697 
	C225.426300,251.994904 216.174057,260.536041 205.400864,262.122620 
	C195.610352,263.564484 185.594055,258.043732 180.905319,248.621262 
	C176.389999,239.547287 178.495346,227.642120 185.900223,220.589905 
	C186.858154,219.677597 187.964264,218.920898 189.363403,217.993362 
	C190.596817,218.486038 191.090744,217.901474 191.710144,217.040405 
	C191.841370,216.781754 191.896149,216.928711 191.841232,216.872742 
	C198.962677,215.002396 206.160980,215.040100 213.845093,216.723953 
z"/>
<path fill="#E1ECFC" opacity="1.000000" stroke="none" 
	d="
M388.684448,286.201172 
	C382.610535,275.726288 388.309540,265.285248 399.789368,263.834900 
	C407.345490,262.880249 414.849731,263.399597 422.361633,263.164886 
	C429.181305,262.951782 434.395111,266.757202 437.220551,272.977600 
	C439.320282,277.600311 437.805115,282.035767 434.981873,286.041443 
	C432.605408,289.413147 429.152924,290.783051 425.235382,290.981628 
	C417.543945,291.371521 409.873901,290.334595 402.112518,291.770905 
	C397.257874,292.669312 392.368988,290.663757 388.684448,286.201172 
z"/>
<path fill="#E2EDFD" opacity="1.000000" stroke="none" 
	d="
M213.989594,277.057556 
	C213.432022,285.905457 208.433441,291.646729 199.245895,290.936676 
	C192.807663,290.439117 186.414856,292.571655 180.017929,291.008362 
	C172.357742,289.136383 166.839035,282.518372 168.329453,275.956329 
	C169.777298,269.581696 173.798553,263.470306 183.070877,263.983032 
	C189.771683,264.353546 196.452881,262.933441 203.222488,264.816467 
	C208.555115,266.299835 213.258530,270.616943 213.989594,277.057556 
z"/>
<path fill="#D8E5FC" opacity="1.000000" stroke="none" 
	d="
M395.721008,140.246979 
	C397.995667,138.141785 390.731415,135.511078 396.335175,134.099442 
	C400.306946,133.098969 403.272278,135.704391 403.999847,140.549026 
	C401.615936,140.949799 399.230652,140.956467 396.398987,140.933624 
	C395.790161,140.754959 395.627686,140.605835 395.721008,140.246979 
z"/>
<path fill="#080B21" opacity="1.000000" stroke="none" 
	d="
M214.061615,216.599823 
	C207.125198,216.900879 199.937073,216.914734 192.267639,216.872665 
	C199.035782,212.640961 206.391083,213.089020 214.061615,216.599823 
z"/>
<path fill="#CBD4E7" opacity="1.000000" stroke="none" 
	d="
M194.564850,140.927094 
	C194.680389,140.625275 195.253784,140.094910 195.825211,140.097031 
	C210.988113,140.153061 226.150803,140.263977 241.607590,140.639801 
	C226.275024,140.924911 210.648407,140.935806 194.564850,140.927094 
z"/>
<path fill="#CBD4E7" opacity="1.000000" stroke="none" 
	d="
M331.512634,140.936951 
	C331.271606,139.160156 332.553802,138.872330 333.929657,139.053955 
	C337.862000,139.573059 342.010162,137.774658 345.854309,140.534317 
	C341.287720,140.928360 336.630341,140.941360 331.512634,140.936951 
z"/>
<path fill="#CBD4E7" opacity="1.000000" stroke="none" 
	d="
M395.511627,140.031067 
	C395.976807,140.037247 395.973389,140.471924 395.963013,140.688019 
	C387.636108,140.921112 379.319641,140.938126 370.544830,140.939728 
	C372.594269,139.100204 375.458771,140.434235 378.563293,140.014709 
	C384.349640,140.017120 389.698029,140.021011 395.511627,140.031067 
z"/>
<path fill="#CBD4E7" opacity="1.000000" stroke="none" 
	d="
M267.483582,140.933701 
	C268.992249,137.801086 271.342865,138.538620 273.868713,140.554626 
	C271.934906,140.927612 269.924164,140.939957 267.483582,140.933701 
z"/>
<path fill="#D7E5FB" opacity="1.000000" stroke="none" 
	d="
M364.402039,140.982391 
	C364.854828,138.268463 366.197937,138.350922 367.932617,140.628845 
	C366.931854,140.977814 365.866577,140.986282 364.402039,140.982391 
z"/>
<path fill="#080B21" opacity="1.000000" stroke="none" 
	d="
M191.583969,216.775330 
	C191.821640,219.659409 191.780975,219.698624 189.829803,218.257507 
	C190.258911,217.519363 190.792740,217.144135 191.583969,216.775330 
z"/>
<path fill="#4DA4FF" opacity="1.000000" stroke="none" 
	d="
M430.655945,416.670410 
	C430.959076,424.349548 430.972229,431.710632 430.971924,439.540771 
	C429.154419,441.485748 429.505493,443.546143 429.497711,445.492798 
	C429.469971,452.404205 429.496429,459.315735 429.482056,466.227203 
	C429.476929,468.706940 429.511566,471.199432 427.321106,473.513733 
	C426.468811,474.198456 425.926971,474.512207 424.906250,474.937378 
	C412.223297,477.649506 399.845215,476.420166 387.516144,476.472046 
	C386.527283,476.476196 385.568390,476.157867 384.346405,475.326477 
	C383.342041,471.964752 380.880798,473.055573 379.120026,473.044739 
	C365.642426,472.961731 352.163269,473.076294 338.686493,472.941986 
	C335.500854,472.910217 332.196625,473.887024 329.122589,471.476013 
	C327.350586,470.086090 325.797333,473.076141 323.678436,473.033905 
	C315.696136,472.874847 307.709564,472.932465 299.725006,472.864136 
	C299.362488,472.861053 299.003693,472.421844 298.024536,471.780762 
	C301.212250,470.453278 303.991791,471.152924 306.644653,471.022858 
	C311.102905,470.804260 315.603668,471.449890 319.997620,470.043427 
	C322.078247,469.377411 323.745605,468.700653 325.103088,466.605560 
	C327.479645,462.937744 332.377167,460.394897 335.509094,462.435303 
	C341.229492,466.162018 345.941010,463.385162 351.028229,462.430969 
	C354.193756,461.837219 357.467468,461.491608 360.418732,462.236176 
	C364.243378,463.201050 366.457642,462.714935 368.610077,459.107147 
	C370.929626,455.219238 367.976105,453.782501 366.131958,451.282440 
	C365.657318,450.746918 365.459442,450.429779 365.367096,449.748352 
	C365.415131,449.258881 365.462097,449.065033 365.625305,448.592926 
	C365.923889,447.946869 366.122681,447.588196 366.526398,446.980652 
	C366.874695,446.576935 367.035645,446.431915 367.474976,446.111176 
	C368.800598,445.475037 369.848541,445.082672 371.143494,446.148071 
	C372.758301,448.800659 373.508148,451.651794 376.344757,453.228973 
	C376.382172,449.662567 375.859314,446.673737 371.177094,446.151794 
	C370.617096,445.536133 370.479828,445.100220 370.592346,444.279724 
	C371.717346,442.810120 373.207428,442.711670 374.807434,442.038147 
	C377.887695,440.293640 375.924011,437.842346 376.231934,435.455933 
	C376.581909,433.586517 376.802094,432.055176 376.311951,430.172363 
	C376.304504,427.389587 377.893982,425.073761 376.828033,422.190613 
	C376.623688,420.447845 376.642487,419.032745 376.286896,417.303345 
	C376.031982,415.604279 376.856720,414.394012 376.756165,412.549042 
	C372.948517,414.160919 369.645203,413.168182 366.280518,411.133087 
	C363.824402,409.647583 360.829926,410.098145 358.059265,410.865356 
	C356.646942,411.256470 355.321960,412.118500 353.474365,411.388336 
	C351.078583,408.799896 348.509460,411.072876 346.236542,410.302124 
	C348.274353,410.987885 350.333038,409.590210 352.677063,410.729248 
	C354.009460,412.069763 353.534790,413.199554 352.744568,414.631744 
	C351.827515,415.671997 350.925507,416.094666 349.725952,416.736633 
	C348.525940,417.387756 347.605530,417.721680 346.230774,417.747528 
	C344.453827,417.411041 342.996429,417.309906 341.296448,416.681274 
	C336.170258,411.796722 330.871918,409.769653 324.186127,413.662048 
	C323.145721,414.026947 322.423370,414.092133 321.336395,413.863556 
	C321.950195,411.774567 324.596985,409.895813 320.004974,408.450287 
	C317.634644,407.704102 318.785034,401.479431 321.368927,401.237396 
	C325.898376,400.813080 329.331055,400.057739 331.110352,394.837158 
	C332.167236,391.736115 336.714661,392.437225 339.667389,392.179474 
	C342.928772,391.894775 345.143494,391.150513 345.909821,387.824860 
	C346.351074,385.909973 347.493408,385.121155 349.434723,384.981201 
	C352.233246,384.779449 355.008759,384.276337 357.804871,384.018982 
	C360.780151,383.745087 363.239410,384.261200 363.015503,388.129120 
	C362.889923,390.299408 364.055847,391.071167 366.094116,391.005219 
	C368.090759,390.940643 370.105804,390.843842 372.087128,391.031830 
	C376.173615,391.419525 378.539612,390.245087 378.053009,385.579926 
	C377.792389,383.081451 379.302979,381.997223 381.741943,382.001709 
	C392.652496,382.021881 403.563110,382.014984 414.473694,382.017883 
	C416.665222,382.018433 418.044312,383.015533 417.952026,385.298187 
	C417.711212,391.251160 421.622467,391.985016 426.583496,391.999878 
	C428.974701,394.000793 428.444183,396.571716 428.500580,398.966339 
	C428.638367,404.817963 428.919952,410.644958 430.655945,416.670410 
z"/>
<path fill="#4EA4FE" opacity="1.000000" stroke="none" 
	d="
M177.405273,478.972687 
	C177.006638,478.963867 177.001602,478.481384 176.999847,478.240173 
	C176.480774,477.297974 176.285294,476.532318 176.766068,475.338318 
	C178.661697,474.987183 180.329910,475.069000 181.982239,474.942841 
	C184.705017,474.734985 186.059418,473.409790 186.039322,470.437897 
	C185.943893,456.317505 186.189056,442.192200 185.903275,428.076935 
	C185.780319,422.003998 184.664688,415.951141 184.062088,409.097839 
	C185.064499,403.670898 184.797897,399.016449 184.170746,393.679535 
	C184.591751,389.415710 187.136581,386.556580 187.292206,382.655243 
	C187.400177,379.948822 190.493835,381.218109 192.297043,381.050415 
	C194.389816,380.855743 195.818619,381.763947 195.973312,384.104889 
	C196.070999,385.583252 196.169281,387.075012 196.465683,388.520081 
	C196.583054,389.092255 197.239807,389.691345 197.992493,389.408600 
	C198.363449,389.269226 198.801437,388.776245 198.850800,388.396667 
	C199.265488,385.208160 198.095947,381.302246 201.671356,379.395477 
	C206.276108,376.939789 211.569794,377.410339 216.352417,378.226013 
	C229.836945,380.525818 243.213608,383.222382 256.996033,381.026581 
	C261.162476,380.362793 264.891052,381.208099 267.525543,384.970612 
	C268.276764,386.043518 269.384949,386.778961 270.827911,387.007263 
	C272.127991,387.212921 274.518433,386.180481 274.381470,388.336365 
	C274.288025,389.806488 273.509125,392.222809 271.677216,392.736450 
	C267.610718,393.876526 266.721710,396.598419 266.962982,400.289490 
	C267.079254,402.068512 266.368896,403.349426 264.292908,402.574341 
	C259.957550,400.955719 256.061890,403.175232 252.239807,404.294250 
	C247.412964,405.707458 249.907333,409.977478 249.997986,413.598938 
	C246.967087,414.000031 243.935989,414.000092 240.450623,414.000671 
	C239.092621,415.295074 237.016312,414.823151 236.163361,416.719879 
	C235.920410,417.906738 235.672379,418.692291 234.314667,418.957214 
	C233.482224,419.506866 232.870178,419.823517 231.830627,420.021301 
	C230.673569,420.220795 229.381393,420.645905 229.708908,421.329437 
	C231.469635,425.004242 229.779709,428.785767 230.346619,432.808838 
	C230.387238,438.226044 231.978943,442.845062 234.557068,447.520691 
	C234.966675,448.599457 235.162308,449.404907 235.733429,450.353790 
	C236.081390,450.685150 236.229156,450.809052 236.557098,451.159271 
	C235.314072,453.591766 233.486038,454.575623 230.858261,453.470032 
	C229.688736,452.977936 228.484436,452.934723 228.183563,454.543854 
	C227.863434,456.255981 228.869171,457.060272 230.445251,456.946411 
	C232.510834,456.797150 233.615234,457.945587 234.987595,459.283691 
	C237.427979,461.663086 239.934113,463.794922 244.116058,462.288940 
	C247.614288,461.029175 251.409515,464.697571 251.949249,469.173248 
	C252.145630,470.801727 251.993164,472.472260 252.000549,474.559998 
	C249.984741,476.989960 247.387100,476.532471 244.956131,476.577362 
	C233.369095,476.791382 221.793365,476.560974 210.233643,475.633301 
	C207.385208,475.404724 204.555984,475.617432 202.330215,478.596313 
	C195.989426,478.934662 189.964996,478.949127 183.472900,478.947845 
	C182.563232,478.479309 182.055313,478.291718 181.216156,478.733704 
	C179.930588,478.943756 178.867249,478.962616 177.405273,478.972687 
z"/>
<path fill="#F4FCFB" opacity="1.000000" stroke="none" 
	d="
M234.234222,449.184509 
	C231.318802,444.391602 228.957977,439.736603 229.206207,433.825073 
	C229.826920,429.826569 229.635696,425.988129 232.503235,422.471344 
	C234.235336,422.333740 235.196136,422.054932 235.960190,421.349274 
	C240.646210,417.021423 246.283173,416.323578 252.292313,417.013641 
	C254.316605,417.246094 256.074921,417.257263 257.653595,415.373596 
	C259.478149,413.196503 262.078918,412.429474 264.897491,413.557434 
	C268.031555,414.811676 268.004791,417.611664 267.916443,420.297577 
	C267.746918,425.450897 267.462097,430.600677 267.200439,435.750702 
	C267.011841,439.461792 267.323578,443.065857 269.162903,446.405212 
	C270.222870,448.329590 270.276520,450.275146 268.796570,451.993530 
	C267.274353,453.760956 264.896790,455.033661 263.031036,453.884979 
	C259.075592,451.449768 255.628891,452.665009 251.826126,453.918610 
	C250.014542,454.515808 247.864288,454.085754 245.422531,454.180054 
	C242.837845,455.775513 241.330017,453.542389 239.305664,452.935608 
	C238.504974,452.186340 237.884018,451.819824 237.000183,451.419434 
	C236.737274,451.385559 236.528320,451.421875 236.440216,451.480835 
	C234.945496,451.550140 234.967758,450.221680 234.234222,449.184509 
z"/>
<path fill="#46A6FF" opacity="1.000000" stroke="none" 
	d="
M202.480774,478.940674 
	C201.375641,474.970886 203.043259,473.612518 206.976059,473.960327 
	C221.644226,475.257538 236.358505,475.021118 251.532425,474.997681 
	C295.688080,474.997375 339.374908,474.998413 383.530273,474.998474 
	C397.371124,474.823669 410.767731,475.626190 424.548950,473.999359 
	C425.204193,473.760803 425.434601,473.545715 425.843719,473.176697 
	C428.302643,471.935242 427.997986,469.848877 427.998749,467.887878 
	C428.001862,459.992615 427.968628,452.097137 428.025848,444.202301 
	C428.037872,442.544037 427.312897,440.341949 430.548584,440.025146 
	C430.971558,450.360779 430.984711,460.711731 430.991638,471.531311 
	C430.755493,472.211609 430.531555,472.429474 430.156586,472.827454 
	C428.590454,478.972870 428.590454,478.974548 421.000305,478.974152 
	C348.316101,478.970154 275.631927,478.965576 202.480774,478.940674 
z"/>
<path fill="#F3FAFB" opacity="1.000000" stroke="none" 
	d="
M288.788513,413.595520 
	C288.593842,415.396423 288.487244,416.780090 288.488647,418.570190 
	C289.182007,424.044952 289.659210,429.129822 289.442780,434.230713 
	C289.288330,437.870422 290.430542,440.330902 293.778442,442.295074 
	C298.667145,445.163208 299.008148,448.605804 295.236755,453.520569 
	C294.405853,453.839142 293.961456,453.987396 293.189758,454.263794 
	C287.537415,455.247101 282.734406,454.617279 279.208557,449.352539 
	C278.969818,449.029480 279.000000,449.000000 278.985168,449.014618 
	C275.270905,446.642029 275.642548,442.722626 275.570312,439.183441 
	C275.323364,427.083496 275.841888,414.971222 275.003021,402.426514 
	C275.031769,398.731873 274.566101,395.297119 278.694183,393.297302 
	C280.781464,393.063171 282.475403,393.027863 284.593201,392.996216 
	C287.992889,393.857544 289.100159,395.941925 289.052246,398.910797 
	C288.975555,403.666168 289.061493,408.423828 288.788513,413.595520 
z"/>
<path fill="#4CA8FE" opacity="1.000000" stroke="none" 
	d="
M173.262054,409.307098 
	C173.011475,406.298004 173.003220,403.597778 172.999542,400.447327 
	C174.560303,398.701050 173.800705,396.898865 174.023376,395.312622 
	C174.137665,394.498383 174.119278,393.510834 175.253967,393.531067 
	C176.203491,393.547974 176.770645,394.367859 176.825073,395.184967 
	C176.935028,396.835236 177.041458,398.542267 176.745331,400.151520 
	C176.097855,403.670227 176.045090,406.386414 178.146988,410.108490 
	C180.398834,414.096100 180.029251,420.053955 177.893326,424.950500 
	C177.383789,426.118622 175.878052,427.202362 176.172623,428.422272 
	C177.836761,435.313690 175.456833,442.261108 176.595886,449.096649 
	C177.299789,453.320740 176.851212,457.180359 174.328430,460.945129 
	C172.412018,459.519928 173.030411,457.585571 173.021317,455.828400 
	C172.969894,445.865448 173.001999,435.902069 173.014603,425.470337 
	C174.878586,419.926208 174.038498,414.766327 173.262054,409.307098 
z"/>
<path fill="#5FB4EF" opacity="1.000000" stroke="none" 
	d="
M294.997437,454.022339 
	C298.051788,446.731842 297.787933,445.737396 290.893951,442.444489 
	C288.462402,441.283081 288.067474,439.431244 288.085541,437.207397 
	C288.132416,431.430878 288.228699,425.654785 288.450928,419.427551 
	C291.486572,420.349182 288.740601,423.689026 290.919189,425.499115 
	C293.238037,421.897858 296.721405,420.149811 301.080505,419.240448 
	C301.910736,421.288696 300.205200,422.013092 299.015900,423.410583 
	C297.800781,424.768402 296.765564,425.852783 296.016785,427.530273 
	C295.667542,428.402100 295.444916,428.984680 295.246368,429.900360 
	C295.107544,430.608734 295.017120,431.009247 294.843689,431.700623 
	C294.577087,432.751648 294.365967,433.507690 294.646606,434.582520 
	C294.811646,435.239685 294.893372,435.616669 295.016266,436.276184 
	C295.165649,437.104126 295.249847,437.654663 295.515656,438.440369 
	C295.828613,439.185974 296.048584,439.675720 296.514587,440.338013 
	C296.804749,440.686554 296.926636,440.822906 297.439880,441.360992 
	C297.966766,441.897980 298.102325,442.033234 298.443756,442.373230 
	C298.927979,442.853851 299.205444,443.130554 299.701965,443.611267 
	C300.500061,444.362030 301.075409,444.912903 301.970001,445.540619 
	C302.383789,445.801178 302.548218,445.904755 302.959045,446.157501 
	C303.539368,446.489227 303.881439,446.654755 304.507141,446.881470 
	C305.153839,447.065857 305.524994,447.174500 306.180206,447.369629 
	C307.241150,447.690247 308.028900,447.883759 309.116638,448.199524 
	C309.600098,448.435699 309.781067,448.558929 310.128113,448.969849 
	C310.271545,450.868774 309.092773,451.574707 307.622833,452.436340 
	C306.914734,452.740479 306.496887,452.864349 305.758881,453.009338 
	C304.649078,453.162048 303.838287,453.181061 302.781921,453.501953 
	C302.328796,453.674347 302.150269,453.748749 301.711334,453.946594 
	C301.110809,454.248779 300.784546,454.450012 300.273560,454.886810 
	C299.253571,456.088043 299.194916,457.332764 298.822266,458.815063 
	C298.594635,459.303925 298.473724,459.485443 298.058228,459.809479 
	C296.890656,458.085907 296.017639,456.219879 294.997437,454.022339 
z"/>
<path fill="#4CA8FE" opacity="1.000000" stroke="none" 
	d="
M180.001221,431.247589 
	C180.021790,429.782898 179.987335,428.781067 180.075790,427.790253 
	C180.208893,426.299530 180.948105,425.115631 182.551483,425.271301 
	C184.094971,425.421112 183.985062,426.868042 183.985992,428.015778 
	C183.997162,441.983704 183.996262,455.951630 183.984116,469.919556 
	C183.982941,471.265259 183.995438,472.772186 182.103668,472.816162 
	C179.840927,472.868713 180.020615,471.098541 180.018082,469.628357 
	C179.996231,456.990723 180.002991,444.353058 180.001221,431.247589 
z"/>
<path fill="#46A6FF" opacity="1.000000" stroke="none" 
	d="
M430.961548,416.521240 
	C428.875214,417.128967 428.127014,416.195282 427.954254,414.094757 
	C427.374695,407.049683 426.666748,400.018463 426.999451,392.467377 
	C426.999359,389.629791 426.999939,387.259613 427.000854,384.445312 
	C427.984161,383.195496 429.055939,382.966339 430.599823,383.756470 
	C430.961884,394.692230 430.969543,405.373108 430.961548,416.521240 
z"/>
<path fill="#EAFBFB" opacity="1.000000" stroke="none" 
	d="
M298.291565,423.266571 
	C298.418304,421.333954 300.260468,421.073242 301.297058,419.582764 
	C305.173767,417.621063 309.029999,416.483215 313.080597,417.401672 
	C316.607422,418.201294 317.811737,414.705963 320.702545,413.826416 
	C321.681183,413.740936 322.376099,413.739227 323.417725,413.707001 
	C327.178223,413.237274 328.178925,415.622009 329.107361,418.562378 
	C329.277740,419.730133 329.273315,420.516663 329.213989,421.701843 
	C329.093079,422.631653 328.936340,423.142487 328.489716,423.970825 
	C327.431824,425.066772 326.466614,425.444672 325.000488,425.104401 
	C323.053375,422.976044 325.299988,419.874390 323.075806,418.442810 
	C320.739899,416.939362 318.827911,420.213928 316.648590,419.927307 
	C310.154449,419.073151 304.812744,423.523285 298.291565,423.266571 
z"/>
<path fill="#5FB4EF" opacity="1.000000" stroke="none" 
	d="
M324.577606,424.876465 
	C325.741333,424.518372 326.492432,424.203949 327.537781,423.800659 
	C328.017426,423.921753 328.202850,424.131714 328.483673,424.750183 
	C328.646820,430.145752 327.367218,435.007233 327.138489,440.382446 
	C326.578827,442.644165 326.573242,444.633118 325.289978,446.666626 
	C324.395477,454.588470 319.978577,461.057159 314.454926,461.084381 
	C315.568054,458.678497 317.536560,457.712769 318.653931,455.399658 
	C322.696228,448.642273 322.585632,441.532806 322.584045,434.385773 
	C322.583344,431.196442 321.607208,427.726929 324.577606,424.876465 
z"/>
<path fill="#4CA8FE" opacity="1.000000" stroke="none" 
	d="
M183.999847,409.000000 
	C182.001938,409.044769 180.182678,408.639038 180.092728,406.220947 
	C179.957092,402.574524 180.025162,398.919739 180.044052,395.268677 
	C180.055023,393.150452 181.572891,393.009705 183.578278,393.002869 
	C185.852066,398.006317 184.986771,403.109314 184.269653,408.598694 
	C183.999390,409.000000 184.000000,409.000000 183.999847,409.000000 
z"/>
<path fill="#4EA4FE" opacity="1.000000" stroke="none" 
	d="
M173.996124,382.380859 
	C173.991913,381.983704 173.995377,381.491699 174.001038,381.245758 
	C175.219620,380.133240 174.778473,378.540985 175.776199,377.242615 
	C176.001831,377.004242 176.000000,377.000000 176.002136,377.000793 
	C178.029831,377.402283 181.734848,375.919891 181.405243,379.207306 
	C181.112747,382.124725 180.152969,386.423035 177.134750,387.489441 
	C174.123566,388.553345 174.244003,384.975433 173.996124,382.380859 
z"/>
<path fill="#60A4DC" opacity="1.000000" stroke="none" 
	d="
M275.546997,401.012695 
	C276.056763,413.115295 276.108032,425.235016 276.163330,437.354736 
	C276.180908,441.205414 276.569183,444.972168 278.844360,448.678406 
	C275.891479,448.687714 274.916595,446.959808 274.953735,443.916412 
	C275.091827,432.592072 275.008087,421.265076 274.997314,409.470612 
	C274.265503,406.334961 274.111237,403.675079 275.546997,401.012695 
z"/>
<path fill="#5FB4EF" opacity="1.000000" stroke="none" 
	d="
M289.007507,413.826294 
	C287.832581,409.812256 288.386230,405.583740 288.442749,401.364105 
	C288.482880,398.369232 288.255676,395.459656 285.242310,393.265778 
	C287.762817,392.625641 289.808716,393.687714 289.833069,396.524048 
	C289.882019,402.227661 290.758820,407.977325 289.007507,413.826294 
z"/>
<path fill="#5FB4EF" opacity="1.000000" stroke="none" 
	d="
M358.226990,456.731323 
	C353.113556,455.334167 347.912354,456.349365 342.976837,455.068939 
	C341.363953,454.650482 339.682190,454.798126 339.333435,452.177795 
	C345.440338,452.260529 351.303223,453.203552 357.610199,452.145447 
	C358.228973,452.297974 358.465790,452.394653 358.980682,452.753784 
	C359.437073,453.498566 359.489380,453.993896 359.324768,454.862762 
	C359.052246,455.679626 358.803528,456.097656 358.226990,456.731323 
z"/>
<path fill="#5FB4EF" opacity="1.000000" stroke="none" 
	d="
M339.036072,451.951111 
	C334.957458,451.933258 333.255676,448.434052 330.317078,446.169067 
	C327.563385,443.927917 328.268188,441.253784 328.538422,438.627228 
	C328.724335,436.820129 328.615723,434.992554 328.638428,432.754883 
	C328.652100,431.483887 328.831543,430.669067 329.395874,429.540344 
	C329.859619,429.057770 330.097748,428.923248 330.716492,428.932434 
	C332.696960,430.879395 332.420135,433.118439 332.343140,435.218384 
	C332.151642,440.443115 333.223724,445.062866 337.672729,448.397034 
	C338.459015,448.986298 338.953339,449.901459 339.258850,451.271912 
	C339.277161,451.665527 339.116943,451.856323 339.036072,451.951111 
z"/>
<path fill="#4DA4FF" opacity="1.000000" stroke="none" 
	d="
M329.586121,431.982727 
	C330.544128,436.410126 328.904877,440.808838 330.034088,445.583008 
	C328.724823,446.707428 327.325653,447.149323 325.412994,446.998108 
	C325.112549,445.166595 324.659149,443.298370 325.706329,441.245667 
	C328.042114,438.316833 326.700653,434.443207 329.586121,431.982727 
z"/>
<path fill="#46A6FF" opacity="1.000000" stroke="none" 
	d="
M276.057190,400.618713 
	C274.081451,403.154144 275.388672,405.768311 274.991394,408.572388 
	C272.905975,404.319427 274.131042,399.418732 274.237915,394.634918 
	C274.289154,392.339233 276.718323,393.229736 278.651245,393.074280 
	C277.023987,395.033142 276.037354,397.416656 276.057190,400.618713 
z"/>
<path fill="#46A6FF" opacity="1.000000" stroke="none" 
	d="
M175.251541,475.190857 
	C174.832962,474.997833 174.663651,474.996918 174.240234,474.995758 
	C172.362137,472.096954 173.195526,468.934082 173.014252,465.441223 
	C173.403214,464.622314 173.858734,464.474670 174.695831,464.777924 
	C176.989822,467.852570 175.563049,471.080994 175.998993,474.552246 
	C175.833206,475.126831 175.667007,475.254883 175.251541,475.190857 
z"/>
<path fill="#60A4DC" opacity="1.000000" stroke="none" 
	d="
M278.977661,449.402954 
	C282.659515,452.440887 286.833191,454.632568 292.452087,454.304260 
	C288.436584,457.106995 281.187164,454.695831 278.977661,449.402954 
z"/>
<path fill="#4CA8FE" opacity="1.000000" stroke="none" 
	d="
M358.403198,456.995728 
	C357.980377,456.549866 357.986359,456.107025 357.998352,455.332031 
	C358.253052,454.807495 358.467133,454.582275 358.817993,454.165161 
	C358.989380,454.006073 359.012756,453.527344 359.016968,453.287720 
	C359.202789,452.852722 359.384369,452.657349 359.927307,452.287872 
	C361.368042,451.818329 362.407043,451.895294 363.692932,452.716248 
	C366.509125,459.764496 360.738708,455.899933 358.403198,456.995728 
z"/>
<path fill="#EAFBFB" opacity="1.000000" stroke="none" 
	d="
M302.338135,464.162231 
	C301.038910,463.168701 300.076752,462.441650 299.227081,461.127106 
	C302.951111,459.280029 306.417572,460.747345 310.312256,461.301208 
	C310.858612,461.714081 311.035858,461.929504 311.049957,462.530273 
	C310.886810,462.915588 310.948822,462.965546 310.959656,462.927246 
	C308.364685,464.260376 305.484497,464.153442 302.338135,464.162231 
z"/>
<path fill="#4EA4FE" opacity="1.000000" stroke="none" 
	d="
M239.190216,452.847321 
	C240.835251,453.036041 242.544571,453.519257 244.615753,454.120789 
	C244.703110,456.659485 243.053955,457.059723 241.022995,456.982025 
	C237.867767,456.861328 241.263184,453.764587 239.190216,452.847321 
z"/>
<path fill="#4EA4FE" opacity="1.000000" stroke="none" 
	d="
M430.966217,383.642273 
	C429.900543,384.007812 428.846893,384.004242 427.397217,384.000946 
	C427.043823,382.021210 427.235657,380.112396 429.686188,379.062073 
	C430.352142,380.431946 430.665192,381.852539 430.966217,383.642273 
z"/>
<path fill="#4CA8FE" opacity="1.000000" stroke="none" 
	d="
M236.364044,416.995850 
	C235.700897,416.136078 233.967804,415.737213 234.679108,414.754822 
	C235.777954,413.237183 237.677429,414.269379 239.600052,414.001007 
	C239.872696,416.053955 238.725128,416.987030 236.364044,416.995850 
z"/>
<path fill="#60A4DC" opacity="1.000000" stroke="none" 
	d="
M302.247986,464.196838 
	C304.711426,463.553680 307.421814,463.211609 310.551331,462.879211 
	C308.569275,465.658783 305.575989,465.309509 302.247986,464.196838 
z"/>
<path fill="#5FB4EF" opacity="1.000000" stroke="none" 
	d="
M364.114410,452.718994 
	C362.858429,452.972290 361.725220,452.962280 360.169586,452.903625 
	C360.342682,450.130310 362.193054,448.854401 365.157684,448.578857 
	C365.640503,449.193542 365.778748,449.696411 365.949341,450.590118 
	C365.400177,451.472534 364.818665,451.964142 364.114410,452.718994 
z"/>
<path fill="#46A6FF" opacity="1.000000" stroke="none" 
	d="
M250.000000,413.999390 
	C251.098938,414.111938 252.315170,413.680634 253.229584,414.568512 
	C253.372116,414.706940 253.137283,415.609009 252.912064,415.688049 
	C251.768036,416.089478 250.664948,416.082428 250.061401,414.340820 
	C249.998169,414.000000 250.000000,414.000000 250.000000,413.999390 
z"/>
<path fill="#4CA8FE" opacity="1.000000" stroke="none" 
	d="
M230.792648,419.358368 
	C231.749771,419.000153 232.498306,419.000305 233.620987,419.000854 
	C233.757538,419.846466 233.519974,420.691742 233.231522,421.865295 
	C233.180649,422.193573 233.130341,422.206085 233.104523,422.208557 
	C231.312881,422.313995 230.574432,421.389465 230.792648,419.358368 
z"/>
<path fill="#4DA4FF" opacity="1.000000" stroke="none" 
	d="
M175.028595,475.319519 
	C175.002258,474.998779 175.500824,474.998779 175.750107,474.998779 
	C176.166260,474.998779 176.333130,474.998779 176.750305,474.998779 
	C177.000259,475.748840 176.999893,476.498901 176.998825,477.623962 
	C175.954330,477.539001 175.233688,476.812866 175.028595,475.319519 
z"/>
<path fill="#4CA8FE" opacity="1.000000" stroke="none" 
	d="
M174.977600,464.693787 
	C174.562271,464.998810 174.122116,465.000031 173.352295,465.001221 
	C173.176468,464.442627 173.330276,463.884033 173.716263,463.141602 
	C174.283218,463.435181 174.617981,463.912628 174.977600,464.693787 
z"/>
<path fill="#60A4DC" opacity="1.000000" stroke="none" 
	d="
M311.235596,462.945404 
	C310.886810,462.915588 311.008545,462.487061 311.064209,462.271423 
	C311.359192,461.706787 311.684235,461.472687 312.390747,461.306030 
	C312.900879,461.317200 313.102966,461.359253 313.557861,461.580048 
	C313.810699,461.758789 313.914001,461.902374 313.969971,461.971375 
	C313.436035,462.936920 312.530853,463.010040 311.235596,462.945404 
z"/>
<path fill="#EAFBFB" opacity="1.000000" stroke="none" 
	d="
M298.875305,461.122925 
	C298.545532,460.942322 298.277466,460.698425 297.886536,460.203247 
	C297.763672,459.951965 297.963531,459.984436 298.055420,460.026917 
	C298.553070,459.898621 298.885010,460.001312 299.103790,460.634216 
	C299.054565,460.927582 298.937012,461.059601 298.875305,461.122925 
z"/>
<path fill="#53A5FC" opacity="1.000000" stroke="none" 
	d="
M173.012451,409.465149 
	C173.567062,409.315002 174.578278,409.612885 174.592056,409.951416 
	C174.794525,414.922882 176.156464,419.974213 173.414551,424.905182 
	C173.017410,419.978607 173.011292,414.955322 173.012451,409.465149 
z"/>
<path fill="#53A5FC" opacity="1.000000" stroke="none" 
	d="
M175.644958,377.070618 
	C175.805634,378.367950 176.574814,380.052734 174.362381,380.931976 
	C174.181641,379.628571 173.428818,377.949554 175.644958,377.070618 
z"/>
<path fill="#53A5FC" opacity="1.000000" stroke="none" 
	d="
M181.328903,478.944672 
	C181.093872,478.286255 181.159729,477.526398 181.961533,477.494537 
	C182.267960,477.482330 182.597595,478.054291 182.960938,478.646057 
	C182.558105,478.942871 182.110992,478.953674 181.328903,478.944672 
z"/>
<path fill="#4EA4FE" opacity="1.000000" stroke="none" 
	d="
M430.220856,472.897522 
	C430.103729,472.683838 430.289337,472.424561 430.770905,472.111786 
	C430.898956,472.329285 430.717865,472.593842 430.220856,472.897522 
z"/>
<path fill="#F4FCFB" opacity="1.000000" stroke="none" 
	d="
M365.564148,448.700073 
	C363.727173,449.907257 361.952057,451.123901 359.962067,452.597748 
	C359.747192,452.854980 359.366516,452.885590 359.193848,452.966858 
	C352.574371,454.414703 346.163757,455.193542 339.641418,451.770752 
	C331.456573,446.431396 329.835541,438.890381 331.229004,429.435242 
	C331.209381,427.551453 331.700317,426.540527 332.000854,425.142761 
	C332.184509,424.616486 332.274170,424.411285 332.552673,423.927551 
	C333.860992,422.584534 335.211365,421.749969 336.214722,420.092438 
	C336.721771,419.469482 337.053314,419.150391 337.698395,418.659241 
	C338.196014,418.358154 338.404938,418.254700 338.941467,418.030762 
	C341.282013,417.443970 343.249390,416.775238 345.640594,416.665894 
	C346.779572,416.671234 347.594299,416.559265 348.681824,416.294312 
	C349.468475,415.438293 350.231873,415.533203 351.328979,415.503357 
	C358.060303,415.790680 362.776611,419.159332 367.155579,423.921753 
	C367.572510,424.409027 367.731262,424.613678 368.096008,425.151855 
	C372.826202,433.499847 372.567535,440.259674 367.208313,446.668701 
	C366.914581,446.943939 366.977570,447.006531 366.959229,446.966187 
	C366.577271,447.412140 366.499298,448.017456 365.989929,448.675232 
	C365.718140,448.794189 365.626007,448.709534 365.564148,448.700073 
z"/>
<path fill="#53A5FC" opacity="1.000000" stroke="none" 
	d="
M352.556396,415.439575 
	C352.303345,413.888275 352.618347,412.788330 352.966675,411.344177 
	C356.524109,410.669525 359.579102,408.123901 363.389862,408.946991 
	C364.807770,409.253235 366.295288,409.027771 367.568542,410.049988 
	C370.243500,412.197571 372.982819,413.907104 376.090485,410.619690 
	C376.663666,410.013397 377.611664,409.926178 378.341064,410.519531 
	C379.060425,411.104675 379.127472,412.028473 378.835083,412.784912 
	C378.369354,413.989716 377.681183,415.108521 377.042328,416.630005 
	C376.424713,418.585510 376.228149,420.131592 377.757263,421.753876 
	C379.189087,424.617432 378.739441,427.027924 377.039124,429.641602 
	C376.991119,431.457306 376.991669,432.917084 376.996948,434.689636 
	C377.180267,437.626251 379.618683,440.326630 376.363098,442.923065 
	C372.855194,441.597351 372.678864,438.796112 372.596954,435.911774 
	C372.505005,432.674347 372.813110,429.326111 370.041290,426.525146 
	C368.918152,426.260284 368.219086,425.966766 367.310669,425.238770 
	C367.017670,424.989929 367.000000,425.000000 367.005432,424.991577 
	C366.518921,424.399109 366.317841,423.715240 366.415344,422.617249 
	C367.250854,420.976990 370.681366,420.489410 368.396912,418.383392 
	C366.397339,416.540100 363.902985,413.614807 360.335815,417.072021 
	C357.593842,417.667755 355.439667,416.387787 352.556396,415.439575 
z"/>
<path fill="#53A5FC" opacity="1.000000" stroke="none" 
	d="
M339.225647,419.016479 
	C339.087708,419.313873 338.774384,419.635284 338.555969,419.686920 
	C338.142975,419.657166 337.948395,419.575806 337.460449,419.373657 
	C335.614685,418.658875 335.390961,419.898224 334.809387,421.167603 
	C334.397705,421.880707 334.071167,422.215576 333.365814,422.649780 
	C332.333557,422.996948 331.622162,422.991302 330.570923,422.713806 
	C329.040619,421.958435 329.007111,420.634979 328.284027,419.313599 
	C327.548126,416.786530 326.321686,415.089783 323.992310,413.880066 
	C326.631592,410.117950 331.275085,409.022949 334.708557,411.128418 
	C336.831085,412.429901 340.208832,411.859650 340.960327,415.634705 
	C341.019135,417.240601 340.149841,417.954895 339.225647,419.016479 
z"/>
<path fill="#46A6FF" opacity="1.000000" stroke="none" 
	d="
M369.751556,425.391541 
	C375.174011,426.045319 373.173584,430.546021 373.872559,433.551361 
	C374.543518,436.436218 373.334808,439.741150 375.922668,442.622314 
	C374.675507,443.738068 373.278564,444.142181 371.380676,443.996857 
	C370.069824,443.073425 370.192261,441.973053 370.372955,440.798401 
	C371.151825,435.735596 369.909332,430.781464 369.751556,425.391541 
z"/>
<path fill="#53A5FC" opacity="1.000000" stroke="none" 
	d="
M370.990448,446.379944 
	C377.132324,445.070740 379.091095,448.275299 377.174713,456.969452 
	C375.319855,453.077240 370.418243,451.733521 370.990448,446.379944 
z"/>
<path fill="#5FB4EF" opacity="1.000000" stroke="none" 
	d="
M369.633392,424.997925 
	C371.096893,430.980194 371.117645,437.018372 371.004974,443.530212 
	C371.001709,444.438934 370.994568,444.881561 370.986115,445.655884 
	C370.984802,445.987610 371.000000,446.000000 370.993835,445.992645 
	C369.865692,446.298889 368.743774,446.612518 367.268219,446.935028 
	C370.402039,439.904297 371.617157,432.840912 367.077026,425.353943 
	C367.764984,424.991608 368.512268,424.993317 369.633392,424.997925 
z"/>
<path fill="#53A5FC" opacity="1.000000" stroke="none" 
	d="
M352.908020,410.610107 
	C349.503662,411.044037 345.777283,413.740692 341.922760,409.589233 
	C346.018677,409.063477 349.437531,407.957123 352.908020,410.610107 
z"/>
<path fill="#5FB4EF" opacity="1.000000" stroke="none" 
	d="
M339.450348,419.251770 
	C338.950684,418.062744 339.343018,417.043213 340.701294,416.153992 
	C342.470581,416.103790 343.938507,416.213959 345.685669,416.553650 
	C343.914246,417.585358 341.863617,418.387512 339.450348,419.251770 
z"/>
<path fill="#4CA8FE" opacity="1.000000" stroke="none" 
	d="
M378.000000,421.612976 
	C374.953247,421.240265 373.820190,419.813843 376.650085,417.062073 
	C378.465240,418.137573 377.859589,419.770172 378.000000,421.612976 
z"/>
<path fill="#4CA8FE" opacity="1.000000" stroke="none" 
	d="
M377.264130,434.769165 
	C375.537079,433.640076 375.837555,432.071808 376.733246,430.231262 
	C378.463196,431.359497 378.163666,432.928101 377.264130,434.769165 
z"/>
<path fill="#53A5FC" opacity="1.000000" stroke="none" 
	d="
M386.500183,420.679504 
	C387.933441,420.495636 387.943970,421.265930 387.648621,422.109619 
	C387.579620,422.306763 387.069885,422.537872 386.864685,422.465363 
	C386.107147,422.197723 386.101471,421.557892 386.500183,420.679504 
z"/>
<path fill="#53A5FC" opacity="1.000000" stroke="none" 
	d="
M352.161804,415.954193 
	C351.214111,416.251801 350.459625,416.246887 349.329895,416.191711 
	C349.447540,415.173065 350.332123,415.008789 351.640869,414.995148 
	C351.988312,414.988251 352.003479,415.003845 352.010284,415.011078 
	C352.129730,415.229431 352.242401,415.440552 352.161804,415.954193 
z"/>
<path fill="#5FB4EF" opacity="1.000000" stroke="none" 
	d="
M366.025818,448.713715 
	C365.951324,448.269073 366.184509,447.743988 366.679260,447.072327 
	C366.738403,447.494965 366.535950,448.064087 366.025818,448.713715 
z"/>
<path fill="#53A5FC" opacity="1.000000" stroke="none" 
	d="
M425.784088,473.110718 
	C425.895874,473.322052 425.706177,473.582245 425.213562,473.889587 
	C425.103058,473.678375 425.293671,473.419342 425.784088,473.110718 
z"/>
<path fill="#53A5FC" opacity="1.000000" stroke="none" 
	d="
M230.797958,418.769897 
	C231.003342,420.211426 231.528900,421.141846 232.797974,422.017395 
	C231.925156,425.742645 230.771591,429.274292 229.376083,433.124207 
	C229.185577,430.820587 229.177139,428.195282 229.324890,425.578796 
	C229.369354,424.791595 229.938797,423.934052 229.116211,423.342163 
	C224.791748,420.230469 228.579269,419.667511 230.797958,418.769897 
z"/>
<path fill="#53A5FC" opacity="1.000000" stroke="none" 
	d="
M184.393494,408.905731 
	C183.999390,403.977905 183.999405,398.955811 183.999390,393.466858 
	C184.550766,393.312500 185.569412,393.605591 185.583374,393.940491 
	C185.790543,398.917175 187.175461,403.975708 184.393494,408.905731 
z"/>
<path fill="#53A5FC" opacity="1.000000" stroke="none" 
	d="
M242.191788,411.902313 
	C240.026718,412.905945 238.457489,412.253296 237.629288,410.661987 
	C236.816986,409.101105 238.525711,408.734467 239.498032,408.369965 
	C241.488312,407.623810 243.961456,407.588379 245.007721,409.342468 
	C246.426147,411.720490 243.043610,410.571808 242.191788,411.902313 
z"/>
<path fill="#53A5FC" opacity="1.000000" stroke="none" 
	d="
M234.055405,449.294983 
	C234.826691,449.596313 235.579803,450.274475 236.342499,451.246216 
	C234.586899,452.148407 234.073196,451.206116 234.055405,449.294983 
z"/>
<path fill="#53A5FC" opacity="1.000000" stroke="none" 
	d="
M234.470856,409.453979 
	C234.522476,409.423981 234.419250,409.483948 234.470856,409.453979 
z"/>
<path fill="#59A5EE" opacity="1.000000" stroke="none" 
	d="
M241.909790,438.874878 
	C240.480286,435.431335 241.205231,432.720428 243.276672,430.238007 
	C245.946732,427.038116 249.483841,427.331818 252.884384,428.191132 
	C256.289398,429.051575 255.281677,432.256744 255.159760,434.484436 
	C255.002899,437.351318 256.779572,441.391663 252.610962,442.651031 
	C248.620758,443.856506 244.687668,443.130127 241.909790,438.874878 
z"/>
<path fill="#F9FCFB" opacity="1.000000" stroke="none" 
	d="
M299.473145,460.953033 
	C298.933350,460.663025 298.757812,460.441498 298.337646,460.166199 
	C298.017822,458.018280 296.888672,455.799042 299.521027,454.056976 
	C300.075287,453.831024 300.251434,453.696869 300.701660,453.375061 
	C300.975708,453.187408 301.375946,452.978180 301.600006,452.950073 
	C302.628754,452.384460 303.567688,452.577179 304.718964,452.241272 
	C305.376892,451.976105 305.761810,451.909393 306.439392,451.863403 
	C307.943115,451.151825 310.162689,451.963318 310.071472,449.308411 
	C309.858459,449.053253 309.376953,448.957153 309.153625,448.855225 
	C308.133484,448.350830 307.241913,448.574677 306.131836,448.220703 
	C305.426483,448.030212 305.004028,447.991669 304.276184,447.861633 
	C303.790039,447.656281 303.609314,447.542389 303.163330,447.248657 
	C302.898071,447.068817 302.988617,447.082214 302.946930,447.101135 
	C302.084564,445.721832 300.866058,444.836182 299.023743,444.243408 
	C298.419464,444.064392 298.199188,443.898590 297.984741,443.437653 
	C297.787781,442.905792 297.597900,442.611755 297.142639,442.195251 
	C296.927338,442.041016 296.992706,442.005280 296.976257,442.038696 
	C296.770355,441.782318 296.541931,441.528107 296.042603,441.189758 
	C295.515717,440.626831 295.214508,440.189331 294.915527,439.468384 
	C294.623779,438.668091 294.521118,438.095978 294.285614,437.269836 
	C294.045105,436.588013 293.955627,436.154938 293.875488,435.389465 
	C293.987122,434.230316 294.007355,433.401337 293.924622,432.260315 
	C293.924652,431.502991 293.954956,431.055664 294.083801,430.285645 
	C294.511230,429.470825 294.504456,428.878784 294.793549,428.081085 
	C294.638733,425.683563 296.468231,424.788208 297.769592,423.220337 
	C304.845612,419.249573 312.998505,420.110535 319.912628,416.704681 
	C321.501343,415.922058 323.124146,415.511169 324.517212,416.678650 
	C325.661713,417.637787 326.181122,419.052490 325.646606,420.697906 
	C325.297211,421.773468 325.205292,422.932678 324.994141,424.443604 
	C323.474213,429.514648 324.251190,434.349792 324.171783,439.105988 
	C324.067261,445.363831 323.186035,451.322723 319.431335,456.872681 
	C317.460266,458.048706 315.425995,458.528748 314.176575,460.670166 
	C313.960114,460.919098 313.973450,460.991425 313.937927,460.981995 
	C313.808472,461.134796 313.714600,461.297028 313.346313,461.520447 
	C312.644989,461.721344 312.218140,461.861023 311.455566,462.028229 
	C307.328979,462.199005 303.592041,461.779938 299.473145,460.953033 
z"/>
<path fill="#EAFBFB" opacity="1.000000" stroke="none" 
	d="
M309.774567,449.350922 
	C310.893188,449.123566 312.080933,449.450378 311.715912,450.650330 
	C311.057495,452.814636 309.045013,451.739563 307.157288,451.925507 
	C307.718262,451.138977 308.704468,450.393799 309.774567,449.350922 
z"/>
<path fill="#EAFBFB" opacity="1.000000" stroke="none" 
	d="
M298.903381,444.408630 
	C300.478760,444.168762 302.762787,443.197937 302.925781,446.716827 
	C301.250702,446.908112 300.191132,445.767059 298.903381,444.408630 
z"/>
<path fill="#EAFBFB" opacity="1.000000" stroke="none" 
	d="
M293.697144,432.164246 
	C295.016479,432.678406 295.210358,433.585236 294.152466,434.869232 
	C293.089294,434.259979 293.133606,433.342224 293.697144,432.164246 
z"/>
<path fill="#EAFBFB" opacity="1.000000" stroke="none" 
	d="
M304.648834,451.986511 
	C304.391754,452.935303 303.479675,453.005341 302.177063,452.949097 
	C302.466248,452.128387 303.345520,451.928040 304.648834,451.986511 
z"/>
<path fill="#EAFBFB" opacity="1.000000" stroke="none" 
	d="
M306.085846,448.300507 
	C306.715576,448.151398 307.582245,448.234009 308.689606,448.534973 
	C308.061127,448.679596 307.191956,448.605896 306.085846,448.300507 
z"/>
<path fill="#EAFBFB" opacity="1.000000" stroke="none" 
	d="
M294.699219,428.029327 
	C294.820038,428.403717 294.719391,428.982208 294.400543,429.761841 
	C294.280792,429.386444 294.379272,428.809967 294.699219,428.029327 
z"/>
<path fill="#EAFBFB" opacity="1.000000" stroke="none" 
	d="
M294.105530,437.322937 
	C294.407166,437.536591 294.679749,438.052094 294.935059,438.876282 
	C294.637329,438.664917 294.356873,438.144867 294.105530,437.322937 
z"/>
<path fill="#EAFBFB" opacity="1.000000" stroke="none" 
	d="
M300.742065,453.225708 
	C300.844055,453.480499 300.634399,453.698639 300.122925,453.903503 
	C300.003632,453.645721 300.206726,453.411987 300.742065,453.225708 
z"/>
<path fill="#EAFBFB" opacity="1.000000" stroke="none" 
	d="
M302.994019,447.287354 
	C303.208740,447.086792 303.477570,447.202148 303.837677,447.592560 
	C303.629272,447.841675 303.335663,447.753571 302.994019,447.287354 
z"/>
<path fill="#EAFBFB" opacity="1.000000" stroke="none" 
	d="
M297.012939,442.296326 
	C297.212738,442.259521 297.498169,442.477997 297.851746,442.966461 
	C297.646088,443.008148 297.372314,442.779877 297.012939,442.296326 
z"/>
<path fill="#EAFBFB" opacity="1.000000" stroke="none" 
	d="
M295.955383,441.289734 
	C296.124969,441.235443 296.432983,441.406586 296.850433,441.824890 
	C296.671173,441.886475 296.382538,441.700806 295.955383,441.289734 
z"/>
<path fill="#4DA4FF" opacity="1.000000" stroke="none" 
	d="
M329.684265,421.762146 
	C330.722412,421.979156 331.485229,421.989655 332.629486,422.001526 
	C333.409943,422.499908 333.594574,423.066864 333.439148,424.145691 
	C333.312775,424.587921 333.370819,424.827118 333.290222,424.920166 
	C331.779724,425.745972 332.055267,427.349426 331.342865,428.819153 
	C331.253235,429.144012 331.280914,429.226929 331.279114,429.271179 
	C331.069733,429.255066 330.862152,429.194641 330.333801,429.086731 
	C327.538361,429.051758 328.254456,427.116455 328.014282,425.385620 
	C327.993439,424.789520 327.972504,424.572784 327.891785,424.033936 
	C327.906403,423.339569 327.980774,422.967316 328.136932,422.321472 
	C328.530426,421.678131 328.927155,421.514099 329.684265,421.762146 
z"/>
<path fill="#5FB4EF" opacity="1.000000" stroke="none" 
	d="
M329.943665,421.658630 
	C329.572632,421.986206 329.185638,422.003754 328.508698,422.034607 
	C328.152649,421.288361 328.086578,420.528870 328.063965,419.389526 
	C329.081757,419.503296 329.770569,420.219055 329.943665,421.658630 
z"/>
<path fill="#53A5FC" opacity="1.000000" stroke="none" 
	d="
M327.722900,425.285217 
	C329.428467,425.824463 328.645294,427.549866 329.755554,428.819519 
	C330.005005,429.783875 329.996979,430.528534 329.976624,431.646606 
	C327.952484,434.519501 330.263031,438.735687 326.275024,440.770569 
	C325.649689,435.760651 326.992279,430.704926 327.722900,425.285217 
z"/>
<path fill="#EAFBFB" opacity="1.000000" stroke="none" 
	d="
M314.281128,460.838409 
	C313.866455,457.857056 315.927856,457.233551 318.747345,457.045197 
	C318.153870,458.942841 316.425873,459.908966 314.281128,460.838409 
z"/>
<path fill="#EAFBFB" opacity="1.000000" stroke="none" 
	d="
M313.249115,461.657104 
	C313.197540,461.377350 313.366302,461.218872 313.740234,461.039398 
	C313.902374,460.972534 313.883087,461.369141 313.846893,461.563965 
	C313.810699,461.758789 313.426361,461.732513 313.249115,461.657104 
z"/>
<path fill="#53A5FC" opacity="1.000000" stroke="none" 
	d="
M358.772858,454.114014 
	C358.889221,454.324921 358.704315,454.583069 358.219543,454.890137 
	C358.099884,454.677734 358.283844,454.418427 358.772858,454.114014 
z"/>
<path fill="#62A7EE" opacity="1.000000" stroke="none" 
	d="
M348.283356,442.724457 
	C342.463501,440.446655 340.422760,436.435120 342.577820,432.166534 
	C344.800812,427.763428 350.170776,426.060760 354.444916,428.403809 
	C358.728424,430.752045 359.622742,435.562561 356.412476,440.880157 
	C355.600159,441.440765 354.945099,441.462006 354.221863,441.991791 
	C353.554047,442.494629 353.062500,442.744019 352.285370,442.973907 
	C350.923279,442.131439 349.702667,442.575195 348.283356,442.724457 
z"/>
<path fill="#5FB4EF" opacity="1.000000" stroke="none" 
	d="
M352.255981,416.461700 
	C351.975067,416.050171 351.981567,415.843628 352.002594,415.327698 
	C354.430695,415.646606 356.844269,416.274872 359.633179,416.941040 
	C360.529938,416.432861 361.146515,416.435364 362.078552,416.837677 
	C363.144165,417.697205 363.812897,418.524872 364.980225,419.261047 
	C365.925995,419.966187 366.505066,420.581573 366.931366,421.689148 
	C366.996368,422.749390 367.005035,423.494049 367.012268,424.610901 
	C362.909698,420.956146 358.612640,417.269928 352.255981,416.461700 
z"/>
<path fill="#5FB4EF" opacity="1.000000" stroke="none" 
	d="
M333.609253,424.440735 
	C333.221191,424.015106 333.129578,423.442291 333.024475,422.436157 
	C333.328735,421.898010 333.587555,421.711365 333.898132,421.227203 
	C334.561676,420.273132 335.035065,419.432953 336.464935,419.403870 
	C337.025085,419.547089 337.234497,419.655701 337.459595,420.117798 
	C336.285431,421.745361 335.095551,423.019440 333.609253,424.440735 
z"/>
<path fill="#5FB4EF" opacity="1.000000" stroke="none" 
	d="
M331.533783,428.963318 
	C331.117615,427.644806 330.382812,425.969788 332.822815,425.062958 
	C333.197968,426.437500 332.570099,427.633728 331.533783,428.963318 
z"/>
<path fill="#60A4DC" opacity="1.000000" stroke="none" 
	d="
M348.420105,442.994751 
	C349.089172,441.724945 350.299469,441.814789 351.788452,442.704529 
	C350.935760,443.003174 349.871765,443.051941 348.420105,442.994751 
z"/>
<path fill="#60A4DC" opacity="1.000000" stroke="none" 
	d="
M354.348389,442.187714 
	C354.507721,441.850708 354.969818,441.456085 355.759491,441.042053 
	C355.608398,441.391785 355.129791,441.760956 354.348389,442.187714 
z"/>
<path fill="#5FB4EF" opacity="1.000000" stroke="none" 
	d="
M338.268463,419.542908 
	C338.211823,419.968750 338.037292,420.152710 337.644653,420.380829 
	C337.475281,420.471283 337.231537,420.236603 337.113525,420.115417 
	C336.832092,419.531586 336.928864,419.143402 337.656219,418.915894 
	C337.987000,418.990814 338.199371,419.347290 338.268463,419.542908 
z"/>
<path fill="#4CA8FE" opacity="1.000000" stroke="none" 
	d="
M367.321411,422.031372 
	C366.405365,421.515686 365.823029,421.026611 365.116699,420.274872 
	C364.325958,419.217133 363.421661,418.784821 362.269104,418.185425 
	C361.560760,417.673920 361.083008,417.356323 360.306885,417.008850 
	C359.743774,413.988953 360.355591,412.402771 363.739136,414.302338 
	C365.715271,415.411774 368.171478,415.580078 369.833221,417.378204 
	C370.956848,418.594025 371.306244,419.954254 370.646729,421.456238 
	C369.976746,422.982117 368.732483,422.236816 367.321411,422.031372 
z"/>
<path fill="#4DA4FF" opacity="1.000000" stroke="none" 
	d="
M337.838043,418.695251 
	C337.678528,419.111755 337.424500,419.304443 337.110199,419.781555 
	C336.195099,420.248444 335.394684,420.502686 334.301575,420.884216 
	C334.350861,418.894257 333.880402,415.632141 337.838043,418.695251 
z"/>
<path fill="#6FA6E9" opacity="1.000000" stroke="none" 
	d="
M306.380066,431.157776 
	C306.668335,428.139252 308.874359,427.919922 311.006409,428.428345 
	C313.259918,428.965759 313.235504,431.209015 312.995209,432.925690 
	C312.666748,435.272491 314.802490,439.374847 310.091766,439.201477 
	C306.227997,439.059235 304.244354,436.489929 305.607269,432.063599 
	C306.162140,431.927551 306.398865,432.137421 306.623810,432.365967 
	C307.475739,433.231750 307.569153,434.975922 309.265106,434.839264 
	C309.999115,434.780182 310.269623,434.040405 310.131958,433.372406 
	C309.739319,431.467621 308.006470,431.705353 306.380066,431.157776 
z"/>
<path fill="#4CA8FE" opacity="1.000000" stroke="none" 
	d="
M305.994385,431.189880 
	C307.703094,430.300201 309.372986,429.148804 310.898560,431.072479 
	C311.846130,432.267273 312.260254,433.700378 311.715729,435.200531 
	C311.283051,436.392609 310.299805,437.018097 309.038696,436.886658 
	C306.441711,436.616058 306.324951,434.503540 305.926941,432.184753 
	C305.862000,431.787109 305.904266,431.375916 305.994385,431.189880 
z"/>
<path fill="#53A5FC" opacity="1.000000" stroke="none" 
	d="
M362.167603,418.284058 
	C363.163330,418.064606 364.433197,417.827972 364.941559,419.669556 
	C363.853333,419.985657 362.921051,419.570312 362.167603,418.284058 
z"/>
</svg>