<svg width="120" height="24" viewBox="0 0 120 24" fill="none" xmlns="http://www.w3.org/2000/svg">
  <symbol id="chevron-right" viewBox="0 0 24 24">
    <svg width="24" height="24" xmlns="http://www.w3.org/2000/svg">
      <path d="M16.918 12.2148L11.6133 17.5469C11.3398 17.793 10.9297 17.793 10.6836 17.5469L10.0547 16.918C9.80859 16.6719 9.80859 16.2617 10.0547 15.9883L14.2656 11.75L10.0547 7.53906C9.80859 7.26562 9.80859 6.85547 10.0547 6.60938L10.6836 5.98047C10.9297 5.73438 11.3398 5.73438 11.6133 5.98047L16.918 11.3125C17.1641 11.5586 17.1641 11.9688 16.918 12.2148Z"/>
    </svg>
  </symbol>
  <symbol id="check-round" viewBox="0 0 24 24">
    <svg width="24" height="24" xmlns="http://www.w3.org/2000/svg">
      <path d="M18.7812 11.75C18.7812 15.4961 15.7188 18.5312 12 18.5312C8.25391 18.5312 5.21875 15.4961 5.21875 11.75C5.21875 8.03125 8.25391 4.96875 12 4.96875C15.7188 4.96875 18.7812 8.03125 18.7812 11.75ZM11.207 15.3594L16.2383 10.3281C16.4023 10.1641 16.4023 9.86328 16.2383 9.69922L15.6094 9.09766C15.4453 8.90625 15.1719 8.90625 15.0078 9.09766L10.9062 13.1992L8.96484 11.2852C8.80078 11.0938 8.52734 11.0938 8.36328 11.2852L7.73438 11.8867C7.57031 12.0508 7.57031 12.3516 7.73438 12.5156L10.5781 15.3594C10.7422 15.5234 11.043 15.5234 11.207 15.3594Z"/>
    </svg>
  </symbol>
  <symbol id="cancel-round" viewBox="0 0 24 24">
    <svg width="24" height="24" xmlns="http://www.w3.org/2000/svg">
      <path d="M12 4.96875C15.7461 4.96875 18.7812 8.00391 18.7812 11.75C18.7812 15.4961 15.7461 18.5312 12 18.5312C8.25391 18.5312 5.21875 15.4961 5.21875 11.75C5.21875 8.00391 8.25391 4.96875 12 4.96875ZM15.3086 13.5547L13.5312 11.75L15.3086 9.97266C15.4453 9.86328 15.4453 9.64453 15.3086 9.50781L14.2422 8.44141C14.1055 8.30469 13.8867 8.30469 13.7773 8.44141L12 10.2188L10.2227 8.44141C10.0859 8.30469 9.86719 8.30469 9.75781 8.44141L8.66406 9.50781C8.52734 9.64453 8.52734 9.86328 8.66406 9.97266L10.4688 11.75L8.66406 13.5273C8.52734 13.6641 8.52734 13.8828 8.66406 13.9922L9.73047 15.0859C9.86719 15.2227 10.0859 15.2227 10.1953 15.0859L12 13.2812L13.7773 15.0859C13.8867 15.2227 14.1055 15.2227 14.2422 15.0859L15.3086 14.0195C15.4453 13.8828 15.4453 13.6641 15.3086 13.5547Z"/>
    </svg>
  </symbol>
  <symbol id="spinner" viewBox="0 0 24 24">
    <svg width="24" height="24" xmlns="http://www.w3.org/2000/svg">
      <path d="M13.3125 6.0625C13.3125 6.80078 12.7109 7.375 12 7.375C11.2617 7.375 10.6875 6.80078 10.6875 6.0625C10.6875 5.35156 11.2617 4.75 12 4.75C12.7109 4.75 13.3125 5.35156 13.3125 6.0625ZM12 16.125C12.7109 16.125 13.3125 16.7266 13.3125 17.4375C13.3125 18.1758 12.7109 18.75 12 18.75C11.2617 18.75 10.6875 18.1758 10.6875 17.4375C10.6875 16.7266 11.2617 16.125 12 16.125ZM17.6875 10.4375C18.3984 10.4375 19 11.0391 19 11.75C19 12.4883 18.3984 13.0625 17.6875 13.0625C16.9492 13.0625 16.375 12.4883 16.375 11.75C16.375 11.0391 16.9492 10.4375 17.6875 10.4375ZM7.625 11.75C7.625 12.4883 7.02344 13.0625 6.3125 13.0625C5.57422 13.0625 5 12.4883 5 11.75C5 11.0391 5.57422 10.4375 6.3125 10.4375C7.02344 10.4375 7.625 11.0391 7.625 11.75ZM7.95312 14.4844C8.69141 14.4844 9.26562 15.0586 9.26562 15.7969C9.26562 16.5078 8.69141 17.1094 7.95312 17.1094C7.24219 17.1094 6.64062 16.5078 6.64062 15.7969C6.64062 15.0586 7.24219 14.4844 7.95312 14.4844ZM16.0195 14.4844C16.7305 14.4844 17.332 15.0586 17.332 15.7969C17.332 16.5078 16.7305 17.1094 16.0195 17.1094C15.2812 17.1094 14.707 16.5078 14.707 15.7969C14.707 15.0586 15.2812 14.4844 16.0195 14.4844ZM7.95312 6.41797C8.69141 6.41797 9.26562 7.01953 9.26562 7.73047C9.26562 8.46875 8.69141 9.04297 7.95312 9.04297C7.24219 9.04297 6.64062 8.46875 6.64062 7.73047C6.64062 7.01953 7.24219 6.41797 7.95312 6.41797Z"/>
    </svg>
  </symbol>
  <symbol id="cancel" viewBox="0 0 24 24">
    <svg width="24" height="24" xmlns="http://www.w3.org/2000/svg">
      <path d="M13.8047 11.75L16.5391 14.5117C16.8945 14.8398 16.8945 15.3867 16.5391 15.7148L15.9375 16.3164C15.6094 16.6719 15.0625 16.6719 14.7344 16.3164L12 13.582L9.23828 16.3164C8.91016 16.6719 8.36328 16.6719 8.03516 16.3164L7.43359 15.7148C7.07812 15.3867 7.07812 14.8398 7.43359 14.5117L10.168 11.75L7.43359 9.01562C7.07812 8.6875 7.07812 8.14062 7.43359 7.8125L8.03516 7.21094C8.36328 6.85547 8.91016 6.85547 9.23828 7.21094L12 9.94531L14.7344 7.21094C15.0625 6.85547 15.6094 6.85547 15.9375 7.21094L16.5391 7.8125C16.8945 8.14062 16.8945 8.6875 16.5391 9.01562L13.8047 11.75Z"/>
    </svg>
  </symbol>
</svg>
